<?xml version="1.0" encoding="UTF-8" standalone="no"?>
<svg
   xmlns:dc="http://purl.org/dc/elements/1.1/"
   xmlns:cc="http://creativecommons.org/ns#"
   xmlns:rdf="http://www.w3.org/1999/02/22-rdf-syntax-ns#"
   xmlns:svg="http://www.w3.org/2000/svg"
   xmlns="http://www.w3.org/2000/svg"
   viewBox="0 0 4000 2666.6667"
   height="2666.6667"
   width="4000"
   xml:space="preserve"
   id="svg2"
   version="1.1"><metadata
     id="metadata8"><rdf:RDF><cc:Work
         rdf:about=""><dc:format>image/svg+xml</dc:format><dc:type
           rdf:resource="http://purl.org/dc/dcmitype/StillImage" /></cc:Work></rdf:RDF></metadata><defs
     id="defs6" /><g
     transform="matrix(1.3333333,0,0,-1.3333333,0,2666.6667)"
     id="g10"><g
       transform="scale(0.1)"
       id="g12"><g
         transform="scale(1.84049)"
         id="g14"><path
           id="path16"
           style="fill:#ffffff;fill-opacity:1;fill-rule:nonzero;stroke:none"
           d="M 16300,0 H 0 V 10866.7 H 16300 V 0" /></g><g
         transform="scale(1.81585)"
         id="g18"><path
           id="path20"
           style="fill:#ebf3fa;fill-opacity:1;fill-rule:nonzero;stroke:none"
           d="m 2484.83,922.159 c 0,0 -1679.834,1722.891 -610.06,3748.881 C 2944.55,6697.03 4380.06,5677.48 4311.38,8036.02 4242.71,10394.6 7614.46,10596 8687.46,9911.77 9760.46,9227.54 9753.69,8403.9 11969.3,8675.65 14185,8947.4 14607.5,6675.56 14030.7,5518 13212.3,3875.6 16300,4145.45 14353.4,918.029 l -11868.57,4.13" /></g><g
         transform="scale(1.43585)"
         id="g22"><path
           id="path24"
           style="fill:#dce8ff;fill-opacity:1;fill-rule:nonzero;stroke:none"
           d="m 16300,8384.18 c 0,-212.01 -19.1,-419.72 -55.8,-621.41 -88.1,-483.9 -277,-932.54 -544.5,-1323.53 -621.2,-908.59 -1665.7,-1504.89 -2849.5,-1504.89 -1408.1,0 -2619.3,843.61 -3155.33,2053.18 -70.76,159.35 -129.75,325.07 -175.72,496.12 -77.65,287.04 -118.95,589.04 -118.95,900.53 0,251.93 27.02,497.66 78.35,734.11 0.49,2.75 1.18,5.33 1.67,8.09 143.4,653.92 472.19,1238.12 928.58,1695.22 129.4,129.7 269.2,249.2 418,357.1 70.9,51.4 144,100.3 218.9,146.2 524.8,323 1142.8,509.2 1804.5,509.2 87.8,0 174.7,-3.2 260.7,-9.8 121.5,-8.9 241.1,-24.2 358.7,-45.6 494.9,-89.6 952.8,-284.9 1350,-561.7 h 0.1 c 247.4,-172.2 471.1,-376 665.5,-605.7 102,-120.6 195.9,-248.3 280.8,-382.4 52.8,-83.4 102.2,-169.1 148,-257.24 109.9,-211.66 198.4,-436.23 262.9,-670.79 80.3,-291.85 123.1,-599.37 123.1,-916.69" /></g><g
         transform="scale(1.09375)"
         id="g26"><path
           id="path28"
           style="fill:#b1caff;fill-opacity:1;fill-rule:nonzero;stroke:none"
           d="m 16241.4,13234.9 c -31.1,4.2 -62.7,6.5 -95,6.5 l -3216.4,1.1 c 201.3,353.8 448.9,677.8 734.5,963.9 169.9,170.3 353.3,327.1 548.7,468.7 93.1,67.6 189.1,131.8 287.4,192.1 141.2,-5.2 309.9,-58.8 453.8,-236.8 316.3,-391.7 527.1,-195.9 451.9,-647.7 -69,-413.3 26,-499 238.7,-499 19.8,0 40.6,0.7 62.4,2 55.7,3.3 113.5,5.9 170.3,5.9 204,0 393.6,-33.3 417.1,-186.6 5.2,-34.2 -15.2,-55.9 -53.4,-70.1" /></g><g
         transform="scale(1.19437)"
         id="g30"><path
           id="path32"
           style="fill:#b1caff;fill-opacity:1;fill-rule:nonzero;stroke:none"
           d="m 15417.9,7718.14 0.2,387.91 c 53.9,-85.82 105.6,-173.57 97,-245.66 -7.7,-64.05 -47.3,-104.24 -97.2,-142.25 m 282.3,645.11 c -53.5,0 -106.8,16.67 -156.9,33.35 -45,14.97 -87.4,29.93 -125.1,32.84 l 0.4,1027.1 c 49.2,-22.65 104.5,-30.08 156,-30.08 98,0.01 181.8,26.88 181.8,26.88 43.6,47.98 120.4,70.44 198.5,70.44 169.1,0 345.1,-105.02 208.4,-284.21 -200,-262.05 -69,-482.71 -262.1,-758.56 -63.2,-90.27 -132.3,-117.76 -201,-117.76" /></g><g
         transform="scale(1.43585)"
         id="g34"><path
           id="path36"
           style="fill:#b1caff;fill-opacity:1;fill-rule:nonzero;stroke:none"
           d="m 15570.4,6417.93 c -49,0 -97.9,9.26 -146.5,28.76 -430.2,172.1 -111.9,636.69 60.2,869.01 172.1,232.32 -266.7,129.06 -585.1,344.17 -294.5,199.01 -14.6,707.35 -229.9,707.35 -17.5,0 -38.1,-3.33 -62.6,-10.41 -166.9,-48.29 -351.6,-103.31 -517.7,-103.32 -159.4,0 -301.7,50.66 -394.4,206.57 -189.3,318.36 172.1,369.98 8.7,636.72 -163.5,266.73 94.6,421.61 421.5,447.42 327,25.81 284,258.13 688.4,292.55 13,1.11 25.7,1.65 37.9,1.65 177.1,0 270,-112.68 367.6,-225.36 97.6,-112.68 199.9,-225.36 395.8,-225.36 13.5,0 27.5,0.53 41.9,1.64 63.9,4.92 118.3,7.03 164.6,7.03 277.5,0 262.7,-75.86 262.7,-75.86 1.9,0.05 3.7,0.07 5.5,0.07 30.2,0 59.7,-6.71 87.9,-19.69 80.3,-291.85 123.1,-599.37 123.1,-916.69 0,-212.01 -19.1,-419.72 -55.8,-621.41 -88.1,-483.9 -277,-932.54 -544.5,-1323.53 v 0 c -42.8,-14.07 -86.1,-21.31 -129.3,-21.31" /></g><g
         transform="scale(1.40185)"
         id="g38"><path
           id="path40"
           style="fill:#b1caff;fill-opacity:1;fill-rule:nonzero;stroke:none"
           d="m 16133.8,10172 c -112.6,0 -204.7,59.4 -294,118.8 -89.3,59.4 -175.7,118.8 -277,118.8 -38.4,0 -79,-8.5 -122.6,-28.8 -63.9,-29.7 -113.1,-42.6 -153,-42.6 -165,0 -168.2,220.2 -376.4,371.7 -62.6,45.5 -140.4,60 -222.1,60 -71.4,0 -145.8,-11.1 -215.5,-22.2 -69.6,-11.1 -134.6,-22.2 -187.2,-22.2 -82.8,0 -135,27.4 -127.2,125.4 23.4,293.6 411.2,211.5 493.5,446.4 54.9,156.7 240.3,182.8 357.8,182.8 58.7,0 100.5,-6.5 100.5,-6.5 21.3,8.1 44.2,13.4 68.4,15.5 h 0.1 c 253.5,-176.4 482.6,-385.1 681.6,-620.4 104.5,-123.6 200.8,-254.4 287.7,-391.7 54.1,-85.5 104.7,-173.2 151.6,-263.5 -60.6,-29.5 -115.6,-41.5 -166.2,-41.5" /></g><g
         transform="scale(1.14291)"
         id="g42"><path
           id="path44"
           style="fill:#b1caff;fill-opacity:1;fill-rule:nonzero;stroke:none"
           d="m 15526.6,13210.7 c -159.5,0 -313.4,355.1 -494.9,559.7 -212.9,239.9 -121.6,460.8 140.2,460.8 17.3,0 35.5,-1 54.4,-3 33.3,-3.6 62.9,-5 89.6,-5 73.4,0 125.6,11.2 176.1,22.5 50.4,11.2 99.1,22.5 165.6,22.5 63,0 141.9,-10.2 253.2,-40 389.2,-104.3 144.2,-457.8 144.2,-457.8 -241.4,-25.2 -201.7,-223.4 -407.2,-485.1 -41.1,-52.4 -81.3,-74.6 -121.2,-74.6" /></g><g
         transform="scale(1.64625)"
         id="g46"><path
           id="path48"
           style="fill:#dfebfd;fill-opacity:1;fill-rule:nonzero;stroke:none"
           d="m 16180.3,2430.86 c 119.7,381.47 -494.1,630.34 -494.1,630.34 0,0 -736.1,-331.12 -853.1,-275.42 -117.1,55.71 574.1,405.96 574.1,405.96 -197.1,154.47 -896.8,238.9 -896.8,238.9 0,0 -390.2,-685.62 -489.9,-602.82 -99.8,82.79 376.5,589.46 376.5,589.46 -242.2,68.82 -583.4,-47.14 -583.4,-47.14 -483.8,-234.71 -297.8,-1078.51 -608.8,-1251.87 v 0 c 0,0 -63.3,-28.25 -148.9,-90.33 l 55.4,-35.41 c 14,11.96 28.2,23.14 42.5,33.41 l 0.3,0.18 0.6,0.42 c 9.3,6.14 22.5,14.83 38.8,25.34 l 0.1,0.05 v 0.07 c 38.2,22.29 65.2,39.48 83.7,52.54 l 0.2,0.12 c 117.2,71.62 345.3,169.29 343.7,157.81 -34.9,-263.81 417.7,-600.63 716.5,-715.2 298.9,-114.56 231.3,33.53 166.3,245.35 -65,211.87 -383.5,370.36 -441.3,474.04 -57.8,103.69 101.2,68.89 268.7,-57.15 167.5,-126.11 143.1,-358.52 410.3,-567.35 267.3,-208.84 826,187.94 826,187.94 -235.5,64.51 -518.5,397.93 -488.8,474.35 29.7,76.41 547.1,-263.63 641.4,-295.22 94.2,-31.59 340.4,40.15 460,421.63" /></g><path
         id="path50"
         style="fill:#dfebfd;fill-opacity:1;fill-rule:nonzero;stroke:none"
         d="m 3587,6201.8 c 94.03,839 1491.98,796.8 1491.98,796.8 0,0 1140.09,-1267.3 1413.73,-1259.5 273.66,7.8 -763.17,1273.8 -763.17,1273.8 512.42,130.5 1936.29,-302.8 1936.29,-302.8 0,0 169.5,-1657.4 432.79,-1582.5 263.31,75 -224.94,1459.9 -224.94,1459.9 526.66,-73.5 1086.99,-588.4 1086.99,-588.4 734.69,-865.9 -344.08,-2337.7 109.14,-2937.8 h 0.02 c 0,0 98.14,-108.6 210.63,-301.5 l -137.24,-21.1 c -16.88,35 -34.72,68.7 -53.66,100.7 l -0.36,0.6 -0.83,1.4 c -12.67,19.8 -30.83,47.8 -53.33,82 l -0.1,0.1 -0.1,0.2 c -54.58,75.6 -92.25,131.9 -116.91,172.9 l -0.21,0.4 c -165.33,238.3 -522.74,621.4 -529.61,597.9 C 8230.77,3155.3 7069.1,2890.4 6394,2923.8 c -675.09,33.4 -418.28,262 -112.07,615.8 306.22,353.9 1056.7,388.7 1256.74,539.8 200.04,151 -136.88,219.4 -567.99,118.6 -431.1,-100.8 -582.01,-570.7 -1276.42,-746.4 -694.41,-175.7 -1435.64,1067.1 -1435.64,1067.1 509.89,-76 1341.07,326.9 1348.78,499.9 4.79,107.8 -494.07,64.6 -921.37,21.4 -258.44,-26.1 -490.7,-52.2 -569.51,-45 -209.12,19.3 -623.55,367.8 -529.52,1206.8" /><g
         transform="scale(1.49024)"
         id="g52"><path
           id="path54"
           style="fill:#d8e8fd;fill-opacity:1;fill-rule:nonzero;stroke:none"
           d="m 15347.6,3764.77 c 0,0 243,866.77 777.7,1323.34 19.5,16.64 41.8,24.02 63.6,24.02 57.5,0 111.1,-51.2 99.3,-117.9 -0.3,-1.54 -0.6,-3.09 -0.9,-4.63 -30.4,-156.62 -640.6,-742.3 -939.7,-1224.83" /></g><g
         transform="scale(1.5431)"
         id="g56"><path
           id="path58"
           style="fill:#d8e8fd;fill-opacity:1;fill-rule:nonzero;stroke:none"
           d="m 14890.8,3636.32 c 231.2,317.8 693.4,871.43 1258.9,1117.43 13.4,5.9 27.7,8.68 41.8,8.68 37.7,0 74.2,-20.28 91.3,-55.99 15.3,-31.88 17.2,-78.35 -16,-145.16 -72.4,-145.94 -707.3,-508.72 -1220.3,-899.43 -56.4,-6.22 -109.7,-15.68 -155.7,-25.53" /></g><g
         transform="scale(1.42444)"
         id="g60"><path
           id="path62"
           style="fill:#d2e4fe;fill-opacity:1;fill-rule:nonzero;stroke:none"
           d="m 15957.9,3683.14 c 0,0 61.8,102.71 173.4,256.1 49.8,10.68 107.6,20.92 168.7,27.67 -123.2,-93.87 -240,-189.2 -342.1,-283.77" /></g><path
         id="path64"
         style="fill:#d8e8fd;fill-opacity:1;fill-rule:nonzero;stroke:none"
         d="m 7491.91,7024.6 c -445.72,719.2 -1355.08,1591.9 -1400.38,1825.3 -0.45,2.4 -0.89,4.7 -1.29,7 -17.63,99.4 62.24,175.7 147.87,175.7 32.47,0 65.78,-11 94.9,-35.9 796.76,-680.4 1158.9,-1972.1 1158.9,-1972.1" /><path
         id="path66"
         style="fill:#d8e8fd;fill-opacity:1;fill-rule:nonzero;stroke:none"
         d="m 7586.67,6733.3 c -15.13,4.4 -32.19,9.3 -51.08,14.6 -815.05,715 -2142.18,1440.5 -2273.36,1704.8 -51.2,103.2 -48.3,174.8 -24.66,224.1 26.45,55.1 82.62,86.4 140.91,86.4 21.7,0 43.71,-4.4 64.57,-13.4 1097.02,-477.4 1942.16,-1704.9 2143.62,-2016.5" /><path
         id="path68"
         style="fill:#d2e4fe;fill-opacity:1;fill-rule:nonzero;stroke:none"
         d="m 7632.57,6660.6 c -31.43,29.1 -63.74,58.2 -96.98,87.3 18.89,-5.3 35.95,-10.2 51.08,-14.6 30.15,-46.6 45.9,-72.7 45.9,-72.7" /><g
         transform="scale(1.12466)"
         id="g70"><path
           id="path72"
           style="fill:#c2cfff;fill-opacity:1;fill-rule:nonzero;stroke:none"
           d="m 16299.9,12204.7 -3.5,-10046.54 c 0,-330.06 -267.7,-597.51 -597.6,-597.42 l -5251.8,1.77 c -330.1,0.18 -597.56,267.82 -597.47,597.87 L 9853,12206.9 c 0.09,330 267.7,597.4 597.8,597.3 l 5251.9,-1.8 c 329.8,-0.1 597.3,-267.8 597.2,-597.7" /></g><g
         transform="scale(1.12984)"
         id="g74"><path
           id="path76"
           style="fill:#163560;fill-opacity:1;fill-rule:nonzero;stroke:none"
           d="m 10402.9,12670.9 c -286.9,0.1 -520.27,-233.2 -520.44,-520 l -3.37,-10000.51 c -0.17,-286.85 233.11,-520.25 520.01,-520.33 l 5227.7,-1.86 c 286.8,-0.09 520.3,233.21 520.3,519.98 l 3.5,10000.52 c 0.1,286.9 -233.2,520.3 -520,520.4 l -5227.7,1.8 m 5223.8,-11192.02 -5227.7,1.86 c -369.2,0.09 -669.4,300.57 -669.31,669.65 l 3.45,10000.51 c 0.18,369.2 300.56,669.4 669.76,669.3 l 5227.7,-1.8 c 369.2,-0.1 669.4,-300.6 669.3,-669.7 l -3.4,-10000.52 c -0.1,-369.17 -300.6,-669.39 -669.8,-669.3" /></g><path
         id="path78"
         style="fill:#ffffff;fill-opacity:1;fill-rule:nonzero;stroke:none"
         d="m 12183.4,13327 -99.3,-71.3 -99.8,70.6 c 22.1,31.1 58.7,51.6 99.9,51.6 40.9,0 77.1,-20 99.2,-50.9" /><path
         id="path80"
         style="fill:#ffffff;fill-opacity:1;fill-rule:nonzero;stroke:none"
         d="m 12084.2,13551.6 c -99.8,0 -188.1,-49.6 -241.6,-125.5 l 63,-44.2 c 39.6,56 105,92.5 178.6,92.5 73,0 137.9,-36 177.5,-91.4 l 62.8,45 c -53.8,74.9 -141.5,123.6 -240.3,123.6" /><path
         id="path82"
         style="fill:#ffffff;fill-opacity:1;fill-rule:nonzero;stroke:none"
         d="m 12084.3,13881.7 c -211.2,0 -398,-104.9 -511.3,-265.4 l 63.1,-44.2 c 99.3,140.4 263.2,232.5 448.2,232.4 183.4,-0.1 346.2,-90.7 445.8,-229.4 l 62.5,45 c -113.4,158.3 -298.9,261.5 -508.3,261.6" /><path
         id="path84"
         style="fill:#ffffff;fill-opacity:1;fill-rule:nonzero;stroke:none"
         d="m 12084.3,13701.1 c -150.3,0 -283.6,-74.3 -364.6,-188.2 l 63,-44.3 c 67.1,93.9 177.3,155.3 301.5,155.3 123.3,-0.1 232.6,-60.5 300,-153.2 l 62.5,44.7 c -81.3,112.5 -213.5,185.6 -362.4,185.7" /><path
         id="path86"
         style="fill:#9fc1f4;fill-opacity:1;fill-rule:nonzero;stroke:none"
         d="m 13410.2,15575.8 c 0,0 -430.7,207 -987.2,93.3 0,0 636.5,43.5 1013.9,-360.5 0,0 264,404.7 700.3,497.5 0,0 -325.1,38.8 -727,-230.3" /><path
         id="path88"
         style="fill:#9fc1f4;fill-opacity:1;fill-rule:nonzero;stroke:none"
         d="m 12196.4,15770.8 c 0,0 -332.2,162 -763.1,76.6 0,0 492.5,30.7 782.5,-283.4 0,0 206,311.8 543.9,381.6 0,0 -251.3,31.5 -563.3,-174.8" /><path
         id="path90"
         style="fill:#9fc1f4;fill-opacity:1;fill-rule:nonzero;stroke:none"
         d="m 11124.9,15918.5 c 0,0 -308.4,134.5 -697.1,40.3 0,0 446.8,46.9 722.8,-227.7 0,0 175.3,291.6 479.9,368.1 0,0 -229.7,18.9 -505.6,-180.7" /><g
         transform="scale(1.00504)"
         id="g92"><path
           id="path94"
           style="fill:#9fc1f4;fill-opacity:1;fill-rule:nonzero;stroke:none"
           d="m 10471.4,16147 c 0,0 -215.3,70.9 -470.2,-16.7 0,0 296.8,59.5 499.2,-107.4 0,0 99.4,206.6 299,277.1 0,0 -155.4,-1.7 -328,-153" /></g><g
         transform="scale(1.05111)"
         id="g96"><path
           id="path98"
           style="fill:#9fc1f4;fill-opacity:1;fill-rule:nonzero;stroke:none"
           d="m 12058.3,16164.2 c 0,0 -202.2,78.4 -449.9,7.4 0,0 286.4,42.1 471.4,-127.4 0,0 105.1,192.4 299.2,249.7 0,0 -148.4,6.1 -320.7,-129.7" /></g><g
         transform="scale(1.00846)"
         id="g100"><path
           id="path102"
           style="fill:#9fc1f4;fill-opacity:1;fill-rule:nonzero;stroke:none"
           d="m 13606.5,16120 c 0,0 -294,148.2 -678.8,77.2 0,0 439,21.6 693.6,-261.7 0,0 187.3,275.4 489,333.5 0,0 -223.5,31 -503.8,-149" /></g><g
         transform="scale(1.03668)"
         id="g104"><path
           id="path106"
           style="fill:#9fc1f4;fill-opacity:1;fill-rule:nonzero;stroke:none"
           d="m 12837.6,16128.7 c 0,0 -269.3,123.2 -612.7,46.4 0,0 393.8,34.2 632.3,-211.7 0,0 158.8,253.8 428.1,316.3 0,0 -201.9,20.3 -447.7,-151" /></g><g
         transform="scale(1.39483)"
         id="g108"><path
           id="path110"
           style="fill:#f78e48;fill-opacity:1;fill-rule:nonzero;stroke:none"
           d="m 15349.4,8987.58 c 0,194.17 158.3,352.44 352.5,352.44 195,0 352.4,-158.27 352.4,-352.44 0,-195.08 -157.4,-352.44 -352.4,-352.44 -194.2,0 -352.5,157.36 -352.5,352.44 z m -245.7,-37.73 c 0,-355.19 598.2,-922.96 598.2,-922.96 0,0 598.1,567.77 598.1,922.96 0,355.21 -267.8,643.23 -598.1,643.23 -330.4,0 -598.2,-288.02 -598.2,-643.23" /></g><g
         transform="scale(1.21601)"
         id="g112"><path
           id="path114"
           style="fill:#f78e48;fill-opacity:1;fill-rule:nonzero;stroke:none"
           d="m 15252.6,12900.8 c 0,213.9 174.5,388.3 388.4,388.3 214.9,0 388.3,-174.4 388.3,-388.3 0,-215 -173.4,-388.3 -388.3,-388.3 -213.9,0 -388.4,173.3 -388.4,388.3 z m -270.7,-41.6 c 0,-391.3 659.1,-1016.9 659.1,-1016.9 0,0 659,625.6 659,1016.9 0,391.4 -295.1,708.7 -659,708.7 -364,0 -659.1,-317.3 -659.1,-708.7" /></g><g
         transform="scale(1.44334)"
         id="g116"><path
           id="path118"
           style="fill:#163560;fill-opacity:1;fill-rule:nonzero;stroke:none"
           d="m 16080.2,1383.88 h -1369.6 c -131.4,0 -237.8,106.42 -237.8,237.78 v 31.04 H 16300 v -48.99 c 0,-121.38 -98.4,-219.83 -219.8,-219.83" /></g><g
         transform="scale(1.44889)"
         id="g120"><path
           id="path122"
           style="fill:#f78248;fill-opacity:1;fill-rule:nonzero;stroke:none"
           d="M 16300,3894.98 V 1722.63 c 0,-26.16 -2.9,-51.7 -8.4,-76.26 h -254.8 c -39.6,0 -76.5,-11.53 -107.6,-31.41 -19.2,-12.22 -36.1,-27.67 -50.1,-45.62 -26.5,-33.89 -42.3,-76.68 -42.3,-123.06 v -67.71 h -998.1 v 67.71 c 0,69.85 -35.7,131.34 -90,167.16 -15.3,10.08 -32.1,18.15 -50.1,23.81 -18.9,5.94 -39,9.12 -59.9,9.12 h -275.4 c -5.5,24.56 -8.4,50.1 -8.4,76.26 v 2172.35 c 0,190.08 153.8,344.13 343.7,344.13 h 1257.6 c 190,0 343.8,-154.05 343.8,-344.13" /></g><g
         transform="scale(1.39606)"
         id="g124"><path
           id="path126"
           style="fill:#163560;fill-opacity:1;fill-rule:nonzero;stroke:none"
           d="m 16287.6,4400.76 c -467.5,184.23 -793.7,2.86 -797,1 l -16.8,29.37 c 3.5,2.01 86.8,49.28 230.9,73.2 132.3,21.99 343,27.37 595.3,-72.13 l -12.4,-31.44" /></g><g
         transform="scale(1.30418)"
         id="g128"><path
           id="path130"
           style="fill:#163560;fill-opacity:1;fill-rule:nonzero;stroke:none"
           d="m 16300,1443.9 h -146.4 v 199.36 H 16300 V 1443.9" /></g><g
         transform="scale(1.30666)"
         id="g132"><path
           id="path134"
           style="fill:#1f4777;fill-opacity:1;fill-rule:nonzero;stroke:none"
           d="m 16092.1,1411.01 c 0,57.47 46.6,104 104,104 57.4,0 103.9,-46.53 103.9,-104 0,-57.48 -46.5,-104.01 -103.9,-104.01 -57.4,0 -104,46.53 -104,104.01" /></g><g
         transform="scale(1.30338)"
         id="g136"><path
           id="path138"
           style="fill:#163560;fill-opacity:1;fill-rule:nonzero;stroke:none"
           d="m 16173.5,1414.55 c 0,34.99 28.3,63.3 63.3,63.3 34.9,0 63.2,-28.31 63.2,-63.3 0,-34.98 -28.3,-63.3 -63.2,-63.3 -35,0 -63.3,28.32 -63.3,63.3" /></g><g
         transform="scale(1.42463)"
         id="g140"><path
           id="path142"
           style="fill:#163560;fill-opacity:1;fill-rule:nonzero;stroke:none"
           d="m 16300,1321.82 h -134 v 182.51 h 134 v -182.51" /></g><g
         transform="scale(1.4271)"
         id="g144"><path
           id="path146"
           style="fill:#1f4777;fill-opacity:1;fill-rule:nonzero;stroke:none"
           d="m 16109.7,1291.92 c 0,52.63 42.6,95.23 95.1,95.23 52.6,0 95.2,-42.6 95.2,-95.23 0,-52.62 -42.6,-95.23 -95.2,-95.23 -52.5,0 -95.1,42.61 -95.1,95.23" /></g><g
         transform="scale(1.42383)"
         id="g148"><path
           id="path150"
           style="fill:#163560;fill-opacity:1;fill-rule:nonzero;stroke:none"
           d="m 16184.2,1294.89 c 0,32.03 25.9,57.94 57.9,57.94 32,0 57.9,-25.91 57.9,-57.94 0,-32.03 -25.9,-57.94 -57.9,-57.94 -32,0 -57.9,25.91 -57.9,57.94" /></g><g
         transform="scale(1.311)"
         id="g152"><path
           id="path154"
           style="fill:#e06832;fill-opacity:1;fill-rule:nonzero;stroke:none"
           d="M 16300,4684.97 V 1783.14 c -16.9,11.14 -35.5,20.06 -55.4,26.32 v 2875.51 h 55.4" /></g><g
         transform="scale(1.34666)"
         id="g156"><path
           id="path158"
           style="fill:#e06832;fill-opacity:1;fill-rule:nonzero;stroke:none"
           d="M 16300,4560.9 V 1483.22 h -54 V 4560.9 h 54" /></g><g
         transform="scale(1.37994)"
         id="g160"><path
           id="path162"
           style="fill:#e06832;fill-opacity:1;fill-rule:nonzero;stroke:none"
           d="M 16300,4450.92 V 1447.46 h -52.7 v 3003.46 h 52.7" /></g><g
         transform="scale(1.41593)"
         id="g164"><path
           id="path166"
           style="fill:#e06832;fill-opacity:1;fill-rule:nonzero;stroke:none"
           d="M 16300,4337.78 V 1652.55 c -19.6,-12.5 -37,-28.32 -51.3,-46.68 v 2731.91 h 51.3" /></g><g
         transform="scale(1.18428)"
         id="g168"><path
           id="path170"
           style="fill:#ffb27d;fill-opacity:1;fill-rule:nonzero;stroke:none"
           d="m 16233,6562.29 c -0.1,4.56 67,143.29 45.7,154.01 -21.3,10.64 -59.6,9.04 -64.1,-15.28 -4.4,-24.32 18.4,-138.73 18.4,-138.73" /></g><g
         transform="scale(1.18125)"
         id="g172"><path
           id="path174"
           style="fill:#ffb27d;fill-opacity:1;fill-rule:nonzero;stroke:none"
           d="m 16300,6496.08 c 0,13.63 -15.7,221.96 -51,263.45 -35,41.39 -106.8,100.4 -129.4,98.62 -22.5,-1.86 -110.8,-119.11 -84.2,-208.93 26.5,-89.91 138.5,-211.47 138.5,-211.47 l 126.1,58.33" /></g><g
         transform="scale(1.19172)"
         id="g176"><path
           id="path178"
           style="fill:#f1a34f;fill-opacity:1;fill-rule:nonzero;stroke:none"
           d="m 16289.5,6689.13 -202.8,-60.75 c -6.7,-2.01 -13.8,1.76 -15.8,8.56 l -115.9,386.58 c -2,6.72 1.8,13.85 8.6,15.86 l 202.7,60.76 c 6.7,2.01 13.8,-1.85 15.8,-8.57 l 115.9,-386.58 c 2,-6.71 -1.8,-13.84 -8.5,-15.86" /></g><g
         transform="scale(1.18847)"
         id="g180"><path
           id="path182"
           style="fill:#d86713;fill-opacity:1;fill-rule:nonzero;stroke:none"
           d="m 16281.2,6691.62 -184.4,-55.29 c -11.9,-3.53 -24.6,3.2 -28.1,15.15 l -110.6,368.79 c -3.6,11.95 3.2,24.57 15.2,28.19 l 184.4,55.28 c 12,3.53 24.6,-3.2 28.2,-15.23 l 110.5,-368.71 c 3.6,-12.03 -3.2,-24.57 -15.2,-28.18" /></g><g
         transform="scale(1.17756)"
         id="g184"><path
           id="path186"
           style="fill:#ffb27d;fill-opacity:1;fill-rule:nonzero;stroke:none"
           d="m 16149,6864.46 c 0,0 85.4,131.46 106.3,124.15 29.8,-10.44 -77.4,-177.31 -77.4,-177.31 0,0 79.5,124.66 91.9,115.32 28.2,-21.4 -16.8,-99.7 -61.4,-159.74 0,0 79.9,73.21 82.5,59.96 9.1,-46.12 -87.7,-158.04 -87.7,-158.04 l -54.2,123.64 v 72.02" /></g><g
         transform="scale(1.16665)"
         id="g188"><path
           id="path190"
           style="fill:#ffb27d;fill-opacity:1;fill-rule:nonzero;stroke:none"
           d="m 16235.3,6805.38 c 4.2,16.2 25.3,333.18 34.3,303.09 9,-30.09 30.4,-196.2 30.4,-196.2 l -64.7,-106.89" /></g><g
         transform="scale(1.26053)"
         id="g192"><path
           id="path194"
           style="fill:#739af0;fill-opacity:1;fill-rule:nonzero;stroke:none"
           d="m 16300,6379.28 c 0,0 -8.3,-318.83 -100.4,-576.26 -72.5,-203.25 -197.4,-368.1 -411.4,-307.17 -21.9,6.18 -43.1,12.93 -63.7,20.07 l -0.3,0.16 c -435,151.52 -575.7,498.28 -575.7,498.28 32.5,53.47 126.2,73.14 126.2,73.14 87.6,-4.76 472.6,-168.18 497.1,-173.18 89.1,-17.85 161,471.39 218.9,640.84 57.8,169.53 294.6,245.37 294.6,245.37 l 14.7,-421.25" /></g><g
         transform="scale(1.25342)"
         id="g196"><path
           id="path198"
           style="fill:#5283db;fill-opacity:1;fill-rule:nonzero;stroke:none"
           d="m 16300,6067.07 -8.5,-231.13 c -73,-204.4 -198.5,-370.19 -413.8,-308.92 -22,6.23 -43.3,13.01 -64,20.19 6.9,-0.88 138.7,-18.67 193.8,36.46 56.7,56.8 50.8,244.77 155.2,370.11 104.4,125.33 137.3,113.29 137.3,113.29" /></g><g
         transform="scale(1.26263)"
         id="g200"><path
           id="path202"
           style="fill:#133054;fill-opacity:1;fill-rule:nonzero;stroke:none"
           d="m 16193.1,1827.61 c 0,0 106.9,-97.57 86,-166.87 -20.8,-69.3 -117.3,-115.47 -130.3,-200.14 -13.1,-84.74 -65.2,-130.92 -112.1,-130.92 -46.9,0 -223.7,0 -223.7,0 0,0 -34.5,59.56 48.9,77.54 83.4,17.98 114.8,117.53 109.7,209.88 -5.3,92.42 7.7,215.66 7.7,215.66 l 177.3,41.03 36.5,-46.18" /></g><g
         transform="scale(1.22309)"
         id="g204"><path
           id="path206"
           style="fill:#163560;fill-opacity:1;fill-rule:nonzero;stroke:none"
           d="m 15501,1390.98 h 680 c 26.6,0 48.5,21.1 49.3,47.75 1,39.9 -2.3,97.79 -24.4,146.68 -36.3,80.45 -59.2,94.51 94.1,328.67 -46.1,-47.42 -170.4,-25.75 -275.3,-11.61 -12.8,-20.84 -207.4,-321.48 -250.3,-352.3 -47.4,-34.01 -258.8,-21.91 -273.4,-159.19" /></g><g
         transform="scale(1.30384)"
         id="g208"><path
           id="path210"
           style="fill:#163560;fill-opacity:1;fill-rule:nonzero;stroke:none"
           d="m 15534.9,4841.77 c 0,0 -462.5,-872.57 -588.2,-1353.08 -97.5,-372.9 497.8,-1815.94 497.8,-1815.94 0,0 48.6,3.22 128,34.44 78,30.6 107.6,112.74 107.6,112.74 0,0 -35.3,1031.8 -155.8,1530.94 -27,112.05 131.1,473.53 397.8,671.48 266.8,197.95 377.9,834.76 219.1,877.87 -158.8,43.02 -606.3,-58.45 -606.3,-58.45" /></g><g
         transform="scale(1.33777)"
         id="g212"><path
           id="path214"
           style="fill:#1c468a;fill-opacity:1;fill-rule:nonzero;stroke:none"
           d="m 15526.7,4960.43 c 0,0 -473.8,-1736.92 -617.5,-2126.9 -143.8,-390.05 -371.7,-1217.85 -371.7,-1217.85 0,0 144.1,-67.65 328.7,-35.66 0,0 692.8,1014.98 722.9,1463.56 14,207.36 710.9,1029.4 633.2,1565.37 l -695.6,351.48" /></g><g
         transform="scale(1.34323)"
         id="g216"><path
           id="path218"
           style="fill:#739af0;fill-opacity:1;fill-rule:nonzero;stroke:none"
           d="m 16155.2,4400.5 c 0,0 -100.4,-50.62 -278,-65.51 h -0.1 c -203.3,-17.05 -507.7,12.88 -878.4,219.32 0,0 -103.5,85.24 23.6,447.58 96.1,274.41 143,852.79 260.4,1379.95 0,0 380.8,119.49 686.2,16.23 233.5,-78.99 210.3,-437.15 253.4,-810.21 4,-34.84 8.5,-69.75 14,-104.6 63.7,-408.34 -81.1,-1082.76 -81.1,-1082.76" /></g><g
         transform="scale(1.30973)"
         id="g220"><path
           id="path222"
           style="fill:#233862;fill-opacity:1;fill-rule:nonzero;stroke:none"
           d="m 15535.9,7345.48 c 0,0 266.6,433.85 473,210.58 0,0 135,-34.51 212.2,-244.55 78.9,-214.4 -44,-403.67 -126,-373.06 -52.6,19.55 -77.1,-71.08 -77.1,-71.08 l -482.1,478.11" /></g><g
         transform="scale(1.31358)"
         id="g224"><path
           id="path226"
           style="fill:#233862;fill-opacity:1;fill-rule:nonzero;stroke:none"
           d="m 15921.3,7568.04 c 0,0 18.2,179.1 280,161.67 0,0 -123.8,-2.21 -150.4,-53.83 0,0 90,58 155.6,29.78 65.7,-28.22 93.5,-151.02 90,-190.15 -3.6,-39.13 -54,-161.31 -98.1,-167.63 -44.1,-6.4 -102,24.82 -102,24.82 l -175.1,195.34" /></g><g
         transform="scale(1.29368)"
         id="g228"><path
           id="path230"
           style="fill:#ffb27d;fill-opacity:1;fill-rule:nonzero;stroke:none"
           d="m 16300,6654.27 c -25,66.47 -62.1,136.35 -92,348.77 l -15.9,-5.57 -268.3,-94.53 c 0,0 18.8,-85.96 30.8,-167.82 4.9,-33.39 8.5,-93.14 10.7,-145.32 2.4,-53.26 54.8,-58.36 108.1,-55.89 141.8,6.57 220,59.52 226.6,120.36" /></g><g
         transform="scale(1.28512)"
         id="g232"><path
           id="path234"
           style="fill:#e8945b;fill-opacity:1;fill-rule:nonzero;stroke:none"
           d="m 16029.9,6948.94 c 0,0 19,-86.53 31.1,-168.93 154.9,26.84 216.6,180.6 239,264.1 l -270.1,-95.17" /></g><g
         transform="scale(1.2925)"
         id="g236"><path
           id="path238"
           style="fill:#233862;fill-opacity:1;fill-rule:nonzero;stroke:none"
           d="m 16231.1,7038.08 c 0,0 62.6,139.73 66.3,252 2.6,80.23 -79,364.25 -364.2,280.54 0,0 -83.3,-20.51 -155.1,-85.73 -57.1,-51.76 -135,-157.13 3.4,-395.28 l 38.8,-81.55 410.8,30.02" /></g><g
         transform="scale(1.2897)"
         id="g240"><path
           id="path242"
           style="fill:#ffb27d;fill-opacity:1;fill-rule:nonzero;stroke:none"
           d="m 15932.4,6839.04 c 0,0 367.6,46.83 335,275.33 -32.8,228.43 -7.3,388.31 -243.4,368.07 -236.1,-20.24 -269.1,-113.9 -276.7,-192.76 -7.7,-78.93 88.6,-456.93 185.1,-450.64" /></g><g
         transform="scale(1.29569)"
         id="g244"><path
           id="path246"
           style="fill:#233862;fill-opacity:1;fill-rule:nonzero;stroke:none"
           d="m 15782.9,7429.5 c 0,0 138.4,-252.38 297.4,-269.67 159.1,-17.37 219.7,33.34 219.7,33.34 0,0 -131,76.49 -179,236.09 0,0 -281,138.08 -338.1,0.24" /></g><g
         transform="scale(1.2568)"
         id="g248"><path
           id="path250"
           style="fill:#233862;fill-opacity:1;fill-rule:nonzero;stroke:none"
           d="m 16300,7640.73 c 0,0 -68.1,-72.48 -78.3,-134.94 -10.1,-62.38 -0.9,-186.43 -37.2,-187.46 0,0 -104.7,175.76 -32.7,294.08 76.4,125.47 148.2,28.32 148.2,28.32" /></g><g
         transform="scale(1.28107)"
         id="g252"><path
           id="path254"
           style="fill:#233862;fill-opacity:1;fill-rule:nonzero;stroke:none"
           d="m 15978.5,7484.82 c 0,0 112.7,-272.12 321.5,-334.41 0,0 -220.7,145.35 -264.3,329.49 -43.5,184.06 -57.2,4.92 -57.2,4.92" /></g><g
         transform="scale(1.34323)"
         id="g256"><path
           id="path258"
           style="fill:#5283db;fill-opacity:1;fill-rule:nonzero;stroke:none"
           d="m 16155.2,4400.5 c 0,0 -100.4,-50.62 -278,-65.51 h -0.1 c 0,0 -145.9,182.92 16.9,387.79 162.7,204.96 -12.8,583.07 112.5,788.77 87.3,143.09 172.2,109.74 215.8,76.31 4,-34.84 8.5,-69.75 14,-104.6 63.7,-408.34 -81.1,-1082.76 -81.1,-1082.76" /></g><g
         transform="scale(1.40466)"
         id="g260"><path
           id="path262"
           style="fill:#ffb27d;fill-opacity:1;fill-rule:nonzero;stroke:none"
           d="m 16061,4498.75 c 0,0 20.7,-48.2 49.6,-51.4 47.2,-5.27 137.1,-44.85 151.2,-53.18 38.2,-22.71 35.6,-124.3 -2.6,-133.84 -38.3,-9.61 -57.4,75.68 -176.9,98.46 -40.5,7.76 -99.6,-20.22 -123.5,76.89 l 102.2,63.07" /></g><g
         transform="scale(1.38753)"
         id="g264"><path
           id="path266"
           style="fill:#739af0;fill-opacity:1;fill-rule:nonzero;stroke:none"
           d="m 15459.1,6193.8 c 351.8,-129.44 364.8,-752.63 521.6,-1027.15 161.8,-283.02 319.3,-655.63 319.3,-655.63 0,0 -2.8,-11.09 -63.1,-28.39 -42.6,-12.18 -86.9,-6.99 -86.9,-6.99 0,0 -332.3,300.68 -422.7,419.23 -90.3,118.63 -303.2,668.96 -303.2,668.96 0,0 -104.6,681.35 35,629.97" /></g><g
         transform="scale(1.38994)"
         id="g268"><path
           id="path270"
           style="fill:#ffb27d;fill-opacity:1;fill-rule:nonzero;stroke:none"
           d="m 16136.4,4458.31 c 0,0 8.5,-41.8 60.3,-75.62 51.8,-33.81 93.3,-67.63 98.3,-46.69 5,20.93 -28.8,43.45 -36.9,82.09 -8,38.63 -121.7,40.22 -121.7,40.22" /></g><g
         transform="scale(1.11936)"
         id="g272"><path
           id="path274"
           style="fill:#f78e48;fill-opacity:1;fill-rule:nonzero;stroke:none"
           d="M 16300,3527.57 H 9971.63 V 8108.68 H 16300 V 3527.57" /></g><g
         transform="scale(1.00994)"
         id="g276"><path
           id="path278"
           style="fill:#f78248;fill-opacity:1;fill-rule:nonzero;stroke:none"
           d="m 16300,2531.64 v -684.99 c 0,-8.42 -0.1,-16.84 -0.5,-25.15 h -3507.4 c -0.3,8.31 -0.5,16.73 -0.5,25.15 v 684.99 c 0,312.4 201.7,568.05 448.1,568.05 h 2612.2 c 246.4,0 448.1,-255.65 448.1,-568.05" /></g><path
         id="path280"
         style="fill:#ffe3ca;fill-opacity:1;fill-rule:nonzero;stroke:none"
         d="m 14686.8,2250.3 -228,204.1 64.1,71.6 147.2,-131.9 203.9,291.6 78.7,-55 -265.9,-380.4" /><path
         id="path282"
         style="fill:#ffe3ca;fill-opacity:1;fill-rule:nonzero;stroke:none"
         d="m 14705.7,2882 c -228.2,0 -414,-185.7 -414,-414 0,-228.3 185.8,-414 414,-414 228.3,0 414,185.7 414,414 0,228.3 -185.7,414 -414,414 z m 0,-850.4 c -240.6,0 -436.4,195.8 -436.4,436.4 0,240.7 195.8,436.4 436.4,436.4 240.7,0 436.5,-195.7 436.5,-436.4 0,-240.6 -195.8,-436.4 -436.5,-436.4" /><path
         id="path284"
         style="fill:#ebf3fa;fill-opacity:1;fill-rule:nonzero;stroke:none"
         d="m 11796.1,12412.7 c 0,0 164,365.2 556.3,324.7 0,0 569.4,608.7 1176.7,81.1 0,0 645.5,130.8 1123.5,-113.2 318.7,-162.6 424,-333.2 424,-333.2 l -3280.5,40.6" /><path
         id="path286"
         style="fill:#ebf3fa;fill-opacity:1;fill-rule:nonzero;stroke:none"
         d="m 14106.4,13276.1 c 2.1,0.1 4.1,0.1 6.2,0.1 24.8,0.5 48.7,9.4 67.1,26.2 82.5,75.4 333.8,263 604.4,47.5 21.2,-16.9 48.5,-23.9 75.3,-20 104.5,15.3 377.6,40 591.4,-74.5 5.8,-3.1 11.5,-6.2 17.1,-9.4 89,-49.9 51.6,-186 -50.4,-184.7 l -1308.2,17 c -128.2,1.7 -131,193 -2.9,197.8" /><g
         transform="scale(1.09288)"
         id="g288"><path
           id="path290"
           style="fill:#ffe3ca;fill-opacity:1;fill-rule:nonzero;stroke:none"
           d="m 14610.8,7782.53 c -199.3,0 -361.4,-162.23 -361.4,-361.52 V 4703.89 c 0,-199.29 162.1,-361.43 361.4,-361.43 h 1286.7 c 199.3,0 361.4,162.14 361.4,361.43 v 2717.12 c 0,199.29 -162.1,361.52 -361.4,361.52 z m 1286.7,-3481.16 h -1286.7 c -221.9,0 -402.5,180.53 -402.5,402.52 v 2717.12 c 0,221.98 180.6,402.51 402.5,402.51 h 1286.7 c 221.9,0 402.5,-180.53 402.5,-402.51 V 4703.89 c 0,-221.99 -180.6,-402.52 -402.5,-402.52" /></g><path
         id="path292"
         style="fill:#ffe3ca;fill-opacity:1;fill-rule:nonzero;stroke:none"
         d="m 14890.4,6614.6 h -2031.5 c -178.8,0 -323.7,144.9 -323.7,323.7 v 1265.8 c 0,178.8 144.9,323.7 323.7,323.7 h 2031.5 c 178.7,0 323.6,-144.9 323.6,-323.7 V 6938.3 c 0,-178.8 -144.9,-323.7 -323.6,-323.7" /><path
         id="path294"
         style="fill:#ffe3ca;fill-opacity:1;fill-rule:nonzero;stroke:none"
         d="m 12828.9,6276.6 c -149.6,0 -271.3,-121.7 -271.3,-271.3 v -988.2 c 0,-149.6 121.7,-271.3 271.3,-271.3 h 2091.4 c 149.6,0 271.3,121.7 271.3,271.3 v 988.2 c 0,149.6 -121.7,271.3 -271.3,271.3 z m 2091.4,-1575.7 h -2091.4 c -174.3,0 -316.1,141.8 -316.1,316.2 v 988.2 c 0,174.3 141.8,316.2 316.1,316.2 h 2091.4 c 174.3,0 316.1,-141.9 316.1,-316.2 v -988.2 c 0,-174.4 -141.8,-316.2 -316.1,-316.2" /><g
         transform="scale(1.05863)"
         id="g296"><path
           id="path298"
           style="fill:#ffe3ca;fill-opacity:1;fill-rule:nonzero;stroke:none"
           d="m 15422.4,7084.56 c 0,179.2 146.1,325.33 325.4,325.33 180.1,0 325.3,-146.13 325.3,-325.33 0,-180.14 -145.2,-325.42 -325.3,-325.42 -179.3,0 -325.4,145.28 -325.4,325.42 z m -226.8,-34.85 c 0,-327.88 552.2,-852.05 552.2,-852.05 0,0 552.2,524.17 552.2,852.05 0,327.87 -247.3,593.79 -552.2,593.79 -305,0 -552.2,-265.92 -552.2,-593.79" /></g><path
         id="path300"
         style="fill:#f78e48;fill-opacity:1;fill-rule:nonzero;stroke:none"
         d="m 14941.1,7261.1 -27.6,-0.2 c -1,0 -1.9,-0.2 -2.9,-0.4 l -212.2,-58 c -2.6,-0.7 -5.4,-0.4 -7.8,0.7 l -298.2,114.9 c -7.7,3.6 38.5,26.1 45.3,31.1 74.6,54.3 311.1,186.6 400,245.3 14.2,9.4 10.3,31.3 -6.3,35.1 -8,1.9 -16.4,1.4 -24.1,-1.4 l -434.4,-157.7 -58.4,37 c -8.5,5.3 -19.8,2.8 -25.2,-5.7 l -28.6,-45.3 c -5.3,-8.3 -2.9,-19.4 5.2,-24.9 l -55.9,-20.3 c -2.7,-1 -5.6,-0.9 -8.2,0.2 l -267.4,114 c -23.6,10.1 -50.1,11.7 -74.8,4.5 -10,-2.9 -20.8,-6.1 -30.8,-9 -20.7,-6.1 -32.1,-28.3 -25.1,-48.7 l 3.5,-10.3 c 11.5,-33.5 37.3,-60.2 70.4,-72.6 l 216.8,-81.6 c 4.3,-1.6 7.2,-5.7 7.3,-10.3 l 1.9,-93.6 -12.4,7.8 c -8.5,5.4 -19.8,2.8 -25.2,-5.6 l -28.6,-45.3 c -5.3,-8.5 -2.8,-19.9 5.7,-25.2 l 62.7,-39.8 3.1,-146.2 c 0.2,-11.8 3.9,-23.3 10.7,-32.9 8.6,-12.4 17.6,-26.1 20.8,-24.6 10.3,4.6 108.5,229.7 141.9,318.3 1.9,5 44.5,-10.9 49.5,-12.8 l 295.6,-90.3 c 3.8,-1.5 6.5,-4.8 7.1,-8.8 l 13.1,-86.3 c 1.5,-9.6 6.2,-18.5 13.4,-25.1 l 0.3,-0.3 c 5.1,-4.7 13.1,-3.7 16.9,2.1 l 68.8,105.3 c 1.9,3.1 5.3,5 9,5.1 l 31.7,1 c 9.9,0.3 14.5,12.4 7.4,19.3 l -7.7,7.4 160.3,113.8 c 9,6.3 4.4,20.4 -6.6,20.3" /><path
         id="path302"
         style="fill:#ffe3ca;fill-opacity:1;fill-rule:nonzero;stroke:none"
         d="m 14515.2,5900.5 c -214.7,0 -389.3,-174.6 -389.3,-389.3 0,-214.7 174.6,-389.4 389.3,-389.4 214.7,0 389.4,174.7 389.4,389.4 0,214.7 -174.7,389.3 -389.4,389.3 z m 0,-826.5 c -241.1,0 -437.2,196.1 -437.2,437.2 0,241.1 196.1,437.2 437.2,437.2 241.1,0 437.3,-196.1 437.3,-437.2 0,-241.1 -196.2,-437.2 -437.3,-437.2" /><path
         id="path304"
         style="fill:#ffe3ca;fill-opacity:1;fill-rule:nonzero;stroke:none"
         d="m 14515.4,5452.5 h -6 c -8.3,0 -15.2,6.9 -15.2,15.2 v 243.6 c 0,8.3 6.9,15.2 15.2,15.2 h 6 c 8.4,0 15.2,-6.9 15.2,-15.2 v -243.6 c 0,-8.3 -6.8,-15.2 -15.2,-15.2" /><path
         id="path306"
         style="fill:#ffe3ca;fill-opacity:1;fill-rule:nonzero;stroke:none"
         d="m 14507.2,5460.4 -0.5,0.6 c -3.4,3.4 -3.4,8.9 0,12.3 l 243.1,243.1 c 3.4,3.4 8.9,3.4 12.3,0 l 0.5,-0.5 c 3.4,-3.4 3.4,-9 0,-12.4 l -243.1,-243.1 c -3.4,-3.3 -8.9,-3.3 -12.3,0" /><path
         id="path308"
         style="fill:#ffe3ca;fill-opacity:1;fill-rule:nonzero;stroke:none"
         d="m 14488.5,5469.2 c 0,13.2 10.7,23.9 23.9,23.9 13.2,0 23.9,-10.7 23.9,-23.9 0,-13.2 -10.7,-23.9 -23.9,-23.9 -13.2,0 -23.9,10.7 -23.9,23.9" /><path
         id="path310"
         style="fill:#ffe3ca;fill-opacity:1;fill-rule:nonzero;stroke:none"
         d="m 13784.8,5935.2 h -961.3 v 99.7 h 961.3 v -99.7" /><path
         id="path312"
         style="fill:#ffe3ca;fill-opacity:1;fill-rule:nonzero;stroke:none"
         d="m 13784.8,5706.9 h -961.3 v 100.4 h 961.3 v -100.4" /><path
         id="path314"
         style="fill:#ffe3ca;fill-opacity:1;fill-rule:nonzero;stroke:none"
         d="m 13399.9,5478.6 h -576.4 V 5579 h 576.4 v -100.4" /><g
         transform="scale(1.05225)"
         id="g316"><path
           id="path318"
           style="fill:#ffe3ca;fill-opacity:1;fill-rule:nonzero;stroke:none"
           d="m 16300,5636.39 h -913.7 v 94.75 h 913.7 v -94.75" /></g><g
         transform="scale(1.05225)"
         id="g320"><path
           id="path322"
           style="fill:#ffe3ca;fill-opacity:1;fill-rule:nonzero;stroke:none"
           d="m 16300,5419.43 h -913.7 v 95.41 h 913.7 v -95.41" /></g><g
         transform="scale(1.02864)"
         id="g324"><path
           id="path326"
           style="fill:#ffe3ca;fill-opacity:1;fill-rule:nonzero;stroke:none"
           d="m 16300,5321.99 h -560.5 v 97.6 h 560.5 v -97.6" /></g><path
         id="path328"
         style="fill:#f78e48;fill-opacity:1;fill-rule:nonzero;stroke:none"
         d="m 13844.4,7988 h -961.3 v 99.8 h 961.3 V 7988" /><path
         id="path330"
         style="fill:#f78e48;fill-opacity:1;fill-rule:nonzero;stroke:none"
         d="m 13844.4,7759.8 h -961.3 v 100.4 h 961.3 v -100.4" /><path
         id="path332"
         style="fill:#f78e48;fill-opacity:1;fill-rule:nonzero;stroke:none"
         d="m 13459.6,7531.5 h -576.5 v 100.4 h 576.5 v -100.4" /><g
         transform="scale(1.34509)"
         id="g334"><path
           id="path336"
           style="fill:#f78e48;fill-opacity:1;fill-rule:nonzero;stroke:none"
           d="m 15085,13257.1 h -1.3 c -26.5,2.1 -52.7,2.2 -78,0.5 -9.3,-0.6 -17.2,6.4 -17.8,15.6 -0.6,9.2 6.3,17.1 15.5,17.7 27,1.8 54.7,1.7 82.8,-0.5 9.3,-0.7 16.1,-8.7 15.4,-17.9 -0.6,-8.7 -7.9,-15.4 -16.6,-15.4 z m 157.5,-31.6 c -1.9,0 -3.8,0.3 -5.7,1 -12.3,4.5 -25,8.4 -37.5,11.5 -12.8,3.1 -25.5,5.9 -37.8,8.4 -9,1.8 -14.9,10.5 -13.1,19.6 1.8,9 10.5,14.9 19.6,13.1 12.7,-2.5 26,-5.5 39.3,-8.7 13.7,-3.4 27.4,-7.6 40.9,-12.5 8.7,-3.2 13.1,-12.8 10,-21.4 -2.4,-6.8 -8.8,-11 -15.7,-11 z m -394.4,-3.2 c -6.6,0 -12.9,4 -15.5,10.5 -3.4,8.6 0.8,18.3 9.4,21.7 25.8,10.3 52.5,18.5 79.3,24.5 8.9,2.1 17.9,-3.6 19.9,-12.6 2,-8.9 -3.6,-17.9 -12.6,-19.9 -25,-5.7 -50.1,-13.4 -74.3,-23 -2,-0.8 -4.1,-1.2 -6.2,-1.2 z m 532.2,-76.8 c -3.7,0 -7.4,1.2 -10.5,3.7 -20.9,16.8 -42.3,31.7 -63.6,44.3 -7.9,4.7 -10.5,14.9 -5.8,22.8 4.6,8 14.8,10.6 22.8,5.9 22.7,-13.3 45.4,-29.2 67.6,-47 7.1,-5.8 8.3,-16.3 2.5,-23.5 -3.4,-4.1 -8.2,-6.2 -13,-6.2 z m -671.7,-2.4 c -5.2,0 -10.1,2.3 -13.4,6.7 -5.6,7.4 -4,17.8 3.3,23.4 22.6,16.8 45.8,32.1 69,45.3 7.9,4.6 18.1,1.8 22.7,-6.2 4.5,-8 1.8,-18.2 -6.2,-22.8 -22,-12.5 -44,-27 -65.5,-43.1 -2.9,-2.2 -6.5,-3.3 -9.9,-3.3 z m -118.6,-108.6 c -4,0 -8.1,1.5 -11.3,4.4 -6.8,6.2 -7.2,16.8 -1,23.6 18.9,20.6 38.3,40.2 57.7,58 6.8,6.3 17.3,5.8 23.6,-0.9 6.2,-6.8 5.8,-17.4 -1,-23.6 -18.6,-17.2 -37.4,-36.1 -55.7,-56.1 -3.3,-3.6 -7.8,-5.4 -12.3,-5.4 z m 903.3,-2.8 c -4.8,0 -9.6,2 -12.9,6 -17.4,21.1 -35.1,40.9 -52.7,58.8 -6.5,6.5 -6.4,17.1 0.2,23.6 6.6,6.4 17.1,6.4 23.6,-0.2 18.3,-18.6 36.7,-39.1 54.6,-61 5.9,-7.1 4.9,-17.6 -2.3,-23.5 -3,-2.5 -6.8,-3.7 -10.5,-3.7 z m -1003.7,-122.9 c -3.3,0 -6.7,0.9 -9.6,3 -7.5,5.3 -9.3,15.7 -4,23.3 16,22.8 32.4,44.7 48.7,65.2 5.8,7.2 16.3,8.4 23.5,2.7 7.2,-5.7 8.4,-16.2 2.7,-23.5 -15.9,-19.9 -32,-41.4 -47.7,-63.7 -3.2,-4.6 -8.4,-7 -13.6,-7 z m 1097.1,-8.2 c -5.5,0 -11,2.7 -14.1,7.8 -14.5,23.1 -29.4,45.4 -44.1,66.3 -5.4,7.5 -3.6,17.9 3.9,23.2 7.6,5.3 18,3.6 23.3,-3.9 15.1,-21.4 30.4,-44.2 45.2,-67.9 4.9,-7.8 2.5,-18.1 -5.3,-23 -2.8,-1.7 -5.8,-2.5 -8.9,-2.5 z m -1183.4,-127.7 c -2.8,0 -5.7,0.7 -8.3,2.2 -8,4.6 -10.7,14.8 -6.1,22.8 13.8,24 27.9,47.4 41.9,69.5 5,7.8 15.3,10.1 23.1,5.2 7.8,-4.9 10.1,-15.3 5.2,-23 -13.9,-21.8 -27.8,-44.8 -41.3,-68.4 -3.1,-5.3 -8.7,-8.3 -14.5,-8.3 z m 1262.8,-12.7 c -6.1,0 -12,3.3 -14.9,9.1 -12.4,24.2 -25.1,47.9 -37.8,70.5 -4.6,8 -1.8,18.2 6.3,22.7 8,4.5 18.2,1.7 22.7,-6.4 13,-22.9 25.9,-47 38.5,-71.6 4.2,-8.2 0.9,-18.3 -7.3,-22.5 -2.4,-1.2 -5,-1.8 -7.5,-1.8 z m -1338.3,-129.5 c -2.5,0 -5,0.6 -7.4,1.7 -8.2,4.1 -11.6,14.1 -7.6,22.4 12.2,24.7 24.6,49 36.8,72.1 4.4,8.2 14.5,11.3 22.6,7 8.1,-4.4 11.3,-14.5 7,-22.6 -12.2,-22.9 -24.4,-46.9 -36.4,-71.3 -3,-5.9 -8.8,-9.3 -15,-9.3 z m 1407,-16.4 c -6.4,0 -12.5,3.8 -15.3,10 -10.9,25.1 -22.1,49.7 -33.1,73.1 -3.8,8.3 -0.3,18.3 8.1,22.2 8.3,3.9 18.3,0.3 22.1,-8 11.2,-23.7 22.5,-48.6 33.5,-73.9 3.7,-8.5 -0.2,-18.3 -8.6,-22 -2.1,-0.9 -4.4,-1.4 -6.7,-1.4 z m -1474.1,-130 c -2.3,0 -4.5,0.5 -6.7,1.4 -8.4,3.6 -12.3,13.4 -8.7,21.9 10.8,25.2 21.9,50.1 32.8,74 3.9,8.4 13.8,12 22.1,8.2 8.4,-3.8 12.1,-13.7 8.3,-22.1 -10.9,-23.7 -21.8,-48.3 -32.5,-73.3 -2.8,-6.3 -8.9,-10.1 -15.3,-10.1 z m 1534.9,-19.4 c -6.7,0 -13,4.1 -15.6,10.7 -9.6,25.5 -19.5,50.6 -29.3,74.8 -3.5,8.5 0.6,18.2 9.1,21.7 8.6,3.5 18.3,-0.6 21.8,-9.2 9.9,-24.4 19.8,-49.8 29.7,-75.4 3.2,-8.6 -1.2,-18.2 -9.7,-21.5 -2,-0.8 -4,-1.1 -6,-1.1 z m -1583.2,-98.2 c -2,0 -4.1,0.4 -6.1,1.2 -8.5,3.3 -12.8,13 -9.4,21.6 5.8,14.7 11.5,29.2 17.3,43.4 3.4,8.6 13.1,12.7 21.7,9.3 8.5,-3.5 12.6,-13.2 9.2,-21.8 -5.7,-14.1 -11.4,-28.5 -17.2,-43.1 -2.5,-6.6 -8.8,-10.6 -15.5,-10.6 z m 1637.7,-53.7 c -6.9,0 -13.5,4.4 -15.8,11.4 -8.7,25.5 -17.5,51 -26.5,75.9 -3.1,8.6 1.5,18.2 10.1,21.3 8.7,3.1 18.3,-1.4 21.4,-10.1 8.9,-25 17.9,-50.7 26.6,-76.5 3,-8.7 -1.7,-18.2 -10.5,-21.1 -1.8,-0.6 -3.5,-0.9 -5.3,-0.9 z m 49.3,-153.6 c -7.2,0 -13.8,4.6 -16,11.8 -7.8,25.7 -15.9,51.6 -24,76.8 -2.8,8.8 2,18.1 10.8,21 8.8,2.8 18.2,-2.1 21.1,-10.8 8.1,-25.4 16.2,-51.4 24,-77.3 2.7,-8.8 -2.3,-18.1 -11,-20.8 -1.7,-0.5 -3.3,-0.7 -4.9,-0.7 z m 44.9,-155 c -7.3,0 -13.9,4.9 -16,12.3 -7.2,25.9 -14.5,51.7 -22,77.4 -2.5,8.8 2.6,18.1 11.4,20.7 8.9,2.5 18.2,-2.6 20.7,-11.4 7.5,-25.8 14.9,-51.8 22.1,-77.8 2.4,-8.9 -2.8,-18.1 -11.7,-20.6 -1.5,-0.4 -3,-0.6 -4.5,-0.6 z m 41.4,-156 c -7.5,0 -14.3,5.1 -16.2,12.6 -6.6,26.1 -13.3,52.1 -20.2,78 -2.4,8.9 3,18 11.9,20.4 8.9,2.3 18,-3 20.4,-11.9 6.9,-26 13.7,-52.1 20.3,-78.3 2.2,-8.9 -3.1,-18 -12.1,-20.2 -1.4,-0.4 -2.8,-0.6 -4.1,-0.6 z m 38.1,-157 c -7.5,0 -14.4,5.2 -16.2,12.9 -6.1,26.2 -12.3,52.4 -18.7,78.6 -2.2,8.9 3.3,18 12.3,20.1 8.9,2.2 17.9,-3.3 20.2,-12.2 6.4,-26.3 12.6,-52.6 18.7,-78.9 2.1,-9 -3.5,-17.9 -12.4,-20 -1.4,-0.3 -2.6,-0.5 -3.9,-0.5 z m 35.3,-157.2 c -7.7,0 -14.6,5.3 -16.3,13.1 -5.6,26.2 -11.3,52.3 -17.2,78.5 -2,9 3.6,17.9 12.6,19.9 9,2.1 17.9,-3.6 20,-12.6 5.8,-26.3 11.6,-52.5 17.3,-78.7 1.9,-9 -3.8,-17.9 -12.9,-19.9 -1.2,-0.2 -2.3,-0.3 -3.5,-0.3 z m 32.8,-158 c -7.8,0 -14.8,5.5 -16.3,13.4 -5.3,26.2 -10.6,52.5 -16.1,78.9 -1.9,9.1 3.9,17.9 12.9,19.8 9.1,1.9 17.9,-4 19.7,-13 5.5,-26.5 11,-52.9 16.2,-79.2 1.8,-9 -4,-17.8 -13.1,-19.6 -1.1,-0.2 -2.2,-0.3 -3.3,-0.3 z m 30.6,-158.5 c -7.9,0 -15,5.6 -16.5,13.6 -4.8,26.2 -9.8,52.7 -14.9,79.2 -1.8,9.1 4.2,17.8 13.2,19.5 9.1,1.8 17.8,-4.1 19.6,-13.2 5.1,-26.6 10.1,-53.1 15,-79.4 1.6,-9 -4.3,-17.7 -13.4,-19.4 -1,-0.2 -2.1,-0.3 -3,-0.3 z m 28.4,-158.9 c -8,0 -15.1,5.7 -16.5,13.9 -4.5,26.2 -9.1,52.6 -13.9,79.3 -1.6,9.1 4.4,17.8 13.5,19.4 9.1,1.6 17.8,-4.4 19.3,-13.5 4.9,-26.8 9.5,-53.3 14.1,-79.6 1.5,-9.1 -4.6,-17.7 -13.7,-19.3 -0.9,-0.1 -1.9,-0.2 -2.8,-0.2 z m 26.4,-159.2 c -8,0 -15.1,5.8 -16.4,14 -4.2,26.2 -8.5,52.7 -13,79.6 -1.5,9.1 4.7,17.7 13.7,19.2 9,1.5 17.7,-4.7 19.2,-13.7 4.5,-27 8.9,-53.6 13,-79.8 1.5,-9.1 -4.6,-17.7 -13.8,-19.1 -0.9,-0.2 -1.8,-0.2 -2.7,-0.2 z m 24.7,-159.6 c -8.1,0 -15.2,5.9 -16.5,14.2 -3.9,26.1 -7.9,52.7 -12,79.8 -1.4,9.1 4.8,17.6 13.9,19 9,1.4 17.6,-4.8 19,-14 4.2,-27.1 8.3,-53.7 12.1,-79.9 1.4,-9.1 -4.9,-17.6 -14,-18.9 -0.9,-0.2 -1.7,-0.2 -2.5,-0.2 z m 22.9,-159.9 c -8.2,0 -15.4,6 -16.5,14.4 -3.6,25.9 -7.3,52.5 -11.2,79.9 -1.3,9.1 5,17.6 14.2,18.9 9.1,1.3 17.5,-5 18.8,-14.2 3.9,-27.4 7.6,-54.1 11.3,-80 1.2,-9.2 -5.1,-17.6 -14.3,-18.8 -0.8,-0.2 -1.5,-0.2 -2.3,-0.2 z m 21.1,-160.2 c -8.2,0 -15.4,6.1 -16.5,14.6 -3.2,25.5 -6.7,52.2 -10.3,80 -1.2,9.2 5.2,17.5 14.3,18.8 9.2,1.2 17.6,-5.3 18.8,-14.4 3.6,-27.9 7.1,-54.7 10.3,-80.3 1.2,-9.1 -5.3,-17.4 -14.4,-18.6 -0.8,-0.1 -1.4,-0.1 -2.2,-0.1 z m 19.4,-160.7 c -8.4,0 -15.7,6.3 -16.6,14.8 -2.8,24.4 -5.9,51.2 -9.4,80.3 -1.1,9.1 5.4,17.4 14.6,18.6 9,1 17.5,-5.5 18.5,-14.6 3.6,-29.2 6.7,-56.1 9.4,-80.5 1.1,-9.2 -5.5,-17.5 -14.6,-18.5 z m 17.1,-161.9 c -8.5,0 -15.8,6.5 -16.6,15.2 0,0.3 -2.7,29.4 -8.2,81 -1,9.2 5.6,17.4 14.8,18.4 9.1,1 17.4,-5.7 18.4,-14.8 5.5,-51.9 8.2,-81.3 8.2,-81.6 0.9,-9.1 -5.9,-17.3 -15.1,-18.1 l -1.5,-0.1" /></g><g
         transform="scale(1.71356)"
         id="g338"><path
           id="path340"
           style="fill:#2e3552;fill-opacity:1;fill-rule:nonzero;stroke:none"
           d="m 16281.9,949.837 -14914.77,5.136 c -10,0 -18.18,8.17 -18.18,18.148 l 0.01,9.338 c 0,9.98 8.19,18.151 18.18,18.151 l 14914.76,-5.137 c 9.9,0 18.1,-8.17 18.1,-18.207 v -9.281 c 0,-9.978 -8.2,-18.207 -18.1,-18.148" /></g><g
         transform="scale(1.11941)"
         id="g342"><path
           id="path344"
           style="fill:#d7e2ff;fill-opacity:1;fill-rule:nonzero;stroke:none"
           d="m 9973.82,9922.3 c 0,0 273.18,18.9 332.68,-195.43 0,0 210.4,428.63 654.8,393.33 444.3,-35.3 526.4,-296.69 526.4,-296.69 0,0 254.6,87.46 466.1,-29.15 211.3,-116.61 197.8,-330.39 197.8,-330.39 0,0 193.8,272.09 583.5,174.91 0,0 -77.7,393.42 390.8,483.42 468.6,89.9 667.6,-65.6 667.6,-65.6 0,0 530.6,341.8 1000.4,-86.61 0,0 344.2,66.81 512.5,-145.17 0,0 344.9,416.68 993.6,343.48 V 8108.28 H 9971.14 l 2.68,1814.02" /></g><path
         id="path346"
         style="fill:#ebf3fa;fill-opacity:1;fill-rule:nonzero;stroke:none"
         d="m 11164.7,9956.3 c 0,0 514.3,130.1 973.4,-172.9 0,0 111.9,133.3 403.3,100.3 291.5,-33 371.7,-302.2 371.7,-302.2 0,0 1019.7,336.7 1524.6,-505 h -3275.9 l 2.9,879.8" /><g
         transform="scale(1.1194)"
         id="g348"><path
           id="path350"
           style="fill:#ebf3fa;fill-opacity:1;fill-rule:nonzero;stroke:none"
           d="m 13458.2,8108.33 c 0,0 23.2,461.05 504.7,571.37 0,0 -249.4,110.24 -123.7,384.25 125.7,273.99 431,294.05 431,294.05 0,0 31.9,495.73 897.4,410.12 243,-24.03 500.2,-169.53 540.5,-423.49 0,0 93.8,154.42 288.3,144.04 0,0 24,281.88 303.6,279.44 V 8108.33 h -2841.8" /></g><g
         transform="scale(1.0915)"
         id="g352"><path
           id="path354"
           style="fill:#739af0;fill-opacity:1;fill-rule:nonzero;stroke:none"
           d="m 16300,12381.5 -372.5,-1290.7 -11.8,1.4 -1273,154.6 c 0,0 589.6,122.7 650.9,193.4 57.7,66.7 669.9,857.6 849,942.2 11,5.2 20.3,7.7 27.9,7.2 129.5,-8.1 129.5,-8.1 129.5,-8.1" /></g><g
         transform="scale(1.08096)"
         id="g356"><path
           id="path358"
           style="fill:#2b478b;fill-opacity:1;fill-rule:nonzero;stroke:none"
           d="m 16070.9,11200.3 -1285.4,156.2 c 0,0 595.3,123.8 657.2,195.3 58.3,67.3 676.4,865.9 857.3,951.3 -160.1,-232.4 -531.2,-791.1 -515.5,-953.6 15.1,-154.7 196.1,-290.5 286.4,-349.2" /></g><g
         transform="scale(1.0836)"
         id="g360"><path
           id="path362"
           style="fill:#e58638;fill-opacity:1;fill-rule:nonzero;stroke:none"
           d="m 16170.2,10781.6 c -43.7,-15 -174.5,-56.2 -354,-108.4 -516,-150.1 -1433.9,-391.1 -1838.9,-361.3 -363.4,26.7 -2285.1,173.4 -3614.3,289.9 321.7,564.9 722.6,877 1089.6,1048 1548.8,-126.9 3574.1,-298.3 3831.7,-348.1 423.9,-82 986.3,-148.6 986.3,-148.6 0,0 3.7,-17.2 7.4,-44.4 11.9,-88.6 22,-282.5 -107.8,-327.1" /></g><g
         transform="scale(1.08258)"
         id="g364"><path
           id="path366"
           style="fill:#d7e2ff;fill-opacity:1;fill-rule:nonzero;stroke:none"
           d="m 16300,11025 c -0.1,-3.2 -0.1,-6.5 -0.2,-9.8 -1.1,-70.6 -15.4,-149.3 -65.4,-194.6 -1.6,-1.6 -3.4,-3.1 -5.2,-4.6 -3.5,-2.8 -7.3,-5.6 -11,-8.2 h -0.1 v -0.1 c -1.9,-1.2 -4,-2.4 -6,-3.7 -2,-1.1 -4,-2.3 -6.1,-3.4 h -0.1 c -2.2,-1.2 -4.3,-2.2 -6.5,-3.2 -2.2,-1 -4.5,-2.1 -6.8,-3 -2.2,-0.9 -4.6,-1.8 -7,-2.6 l -2.2,-0.7 v 0 l -2.2,-0.8 -2.3,-0.7 v -0.1 c -0.8,-0.2 -1.7,-0.5 -2.5,-0.8 v -0.1 c -0.9,-0.2 -1.8,-0.4 -2.7,-0.8 -0.9,-0.3 -1.8,-0.6 -2.6,-0.9 h -0.1 v 0 c -1,-0.3 -1.9,-0.6 -2.8,-1 -1,-0.3 -2,-0.6 -3.1,-0.9 h -0.1 c -1,-0.4 -1.9,-0.7 -3,-1 -1,-0.4 -2.1,-0.7 -3.1,-1.1 -2.3,-0.7 -4.6,-1.5 -6.9,-2.2 h -0.1 c -1.1,-0.4 -2.3,-0.7 -3.4,-1.1 h -0.1 v -0.1 c -1.2,-0.4 -2.5,-0.8 -3.7,-1.1 -0.9,-0.3 -1.7,-0.6 -2.7,-0.9 -9.7,-3.1 -20.5,-6.6 -32.3,-10.3 -2.2,-0.7 -4.4,-1.3 -6.7,-2.1 -31.1,-9.8 -68.8,-21.4 -112.1,-34.5 -4.5,-1.3 -8.9,-2.7 -13.6,-4.1 -7.5,-2.3 -15.3,-4.6 -23.2,-7 -1.7,-0.4 -3.4,-1 -5.2,-1.5 -2.3,-0.7 -4.8,-1.4 -7.2,-2.2 -2.4,-0.7 -4.9,-1.4 -7.4,-2.1 -2.5,-0.8 -5,-1.5 -7.5,-2.3 -2.4,-0.7 -5,-1.5 -7.5,-2.2 -2.6,-0.8 -5,-1.5 -7.5,-2.3 -2.7,-0.7 -5.3,-1.5 -7.8,-2.3 -2.6,-0.7 -5.3,-1.5 -7.8,-2.2 v -0.1 c -2.6,-0.8 -5.2,-1.5 -7.9,-2.3 -1.8,-0.5 -3.7,-1.1 -5.6,-1.7 l -2.3,-0.7 c -2.7,-0.7 -5.3,-1.5 -8,-2.2 -13.5,-4 -27.1,-8 -41.2,-12 -8,-2.5 -16.2,-4.8 -24.6,-7.2 -7.1,-2.1 -14.2,-4.1 -21.4,-6.2 -5.4,-1.6 -10.8,-3.2 -16.3,-4.7 -21.4,-6.1 -43.3,-12.3 -65.6,-18.7 -4.6,-1.3 -9.1,-2.5 -13.6,-3.8 -7.9,-2.2 -15.6,-4.4 -23.6,-6.6 -7.1,-2.1 -14.3,-4 -21.5,-6.1 -8,-2.2 -16.1,-4.5 -24.2,-6.7 -268.4,-74.5 -593.8,-158.1 -895.6,-218.8 -10.6,-2.1 -21.2,-4.2 -31.7,-6.3 -5.3,-1 -10.4,-2.1 -15.7,-3.1 -10.5,-2 -21,-4 -31.4,-5.9 -31.2,-6 -62.2,-11.7 -92.7,-17 -10.1,-1.8 -20.2,-3.6 -30.3,-5.2 -5,-0.9 -10,-1.7 -15,-2.6 -10,-1.6 -20,-3.2 -29.9,-4.9 -9.8,-1.6 -19.7,-3.1 -29.5,-4.6 -9.7,-1.5 -19.4,-3 -29.1,-4.4 -9.6,-1.4 -19.3,-2.8 -28.7,-4.1 -9.6,-1.4 -19.1,-2.7 -28.4,-4 -9.4,-1.2 -18.7,-2.4 -28,-3.6 -4.5,-0.6 -9.1,-1.1 -13.8,-1.7 -18.2,-2.2 -36.3,-4.3 -53.9,-6.1 -4.5,-0.5 -8.9,-1 -13.3,-1.3 -8.8,-0.9 -17.4,-1.7 -26,-2.6 -17.1,-1.5 -33.9,-2.8 -50.4,-3.9 -12.3,-0.9 -24.4,-1.6 -36.2,-2.1 -7.9,-0.5 -15.8,-0.8 -23.6,-1 -11.5,-0.5 -22.9,-0.8 -33.9,-0.9 -14.8,-0.3 -29.1,-0.2 -42.9,0.1 -7,0.1 -13.9,0.4 -20.6,0.7 -3.3,0.1 -6.6,0.1 -10,0.4 -6.5,0.3 -13,0.7 -19.4,1.2 -2.2,0.1 -4.5,0.3 -7,0.5 l -1.7,0.1 c -1.5,0.2 -3.1,0.3 -4.7,0.4 -5.9,0.4 -12.2,0.8 -18.9,1.4 -1.8,0.1 -3.5,0.3 -5.4,0.3 -2.3,0.2 -4.5,0.4 -6.8,0.6 -3.4,0.2 -7.1,0.5 -10.7,0.7 -2,0.2 -4,0.3 -5.9,0.5 -2,0.1 -4,0.3 -5.9,0.5 -4.2,0.3 -8.3,0.5 -12.5,0.9 -4.2,0.3 -8.4,0.7 -12.9,0.9 -2.2,0.2 -4.4,0.3 -6.7,0.5 -5.4,0.5 -11.1,0.8 -16.8,1.3 -2.8,0.2 -5.5,0.4 -8.1,0.7 -5.8,0.4 -11.6,0.8 -17.6,1.3 -2.5,0.2 -5,0.3 -7.7,0.5 -7.3,0.6 -14.7,1.2 -22.5,1.7 -21.3,1.6 -44.1,3.4 -68.2,5.1 -2.8,0.3 -5.9,0.5 -8.9,0.8 -5.9,0.4 -12,0.8 -18.3,1.3 -9.2,0.7 -18.6,1.4 -28.2,2.1 -3.9,0.4 -7.7,0.7 -11.6,1 -9.1,0.6 -18.3,1.4 -27.6,2 -3.3,0.3 -6.7,0.6 -10.1,0.8 -6.3,0.5 -12.8,1 -19.2,1.5 l -21.4,1.6 c -3.8,0.3 -7.4,0.6 -11.3,0.9 -3.5,0.3 -7.1,0.5 -10.7,0.8 -5.6,0.4 -11.3,0.9 -17.1,1.3 -33.1,2.5 -67.5,5.2 -103.3,7.8 -5.3,0.5 -10.4,0.9 -15.7,1.3 -8,0.6 -15.9,1.3 -24,1.8 -18.7,1.5 -37.8,2.9 -57.1,4.4 -1.5,0.2 -3,0.3 -4.4,0.4 -16.9,1.3 -33.9,2.6 -51,3.9 -0.9,0.1 -1.7,0.2 -2.4,0.2 -102.5,7.9 -212.9,16.5 -329.5,25.5 -5.9,0.5 -11.9,1 -17.8,1.4 -23.5,1.8 -47.4,3.7 -71.5,5.5 -15.1,1.3 -30.3,2.5 -45.5,3.7 -0.8,0 -1.7,0.1 -2.5,0.2 -17.4,1.3 -34.9,2.7 -52.6,4.1 -2.1,0.1 -4.2,0.3 -6.4,0.4 -30.9,2.5 -62.3,5 -93.9,7.4 -8.1,0.7 -16.1,1.3 -24.3,2 -2.5,0.1 -4.9,0.3 -7.4,0.5 -27.7,2.2 -55.7,4.4 -83.6,6.6 -12.4,1 -24.6,1.9 -36.9,2.9 -8.2,0.7 -16.3,1.3 -24.6,1.9 -16.5,1.4 -33.1,2.7 -49.8,4 -25,2 -50.1,3.9 -75.2,6 -2.4,0.1 -4.6,0.3 -6.8,0.4 -10.4,1 -20.8,1.7 -31.1,2.6 l -2.3,0.1 c -31,2.5 -62,5 -93.3,7.4 -0.8,0.1 -1.7,0.2 -2.6,0.3 -3.3,0.3 -6.5,0.5 -9.7,0.7 -18.4,1.4 -36.9,2.9 -55.3,4.4 -13.9,1.1 -27.9,2.2 -41.9,3.4 -8.7,0.6 -17.3,1.3 -26,2 -36.2,2.8 -72.6,5.8 -109.2,8.7 l -0.9,0.1 c -60.5,4.9 -121.4,9.8 -182.7,14.7 -8.3,0.7 -16.6,1.3 -25,2.1 l -1.7,0.1 c -26.9,2.1 -53.7,4.4 -80.6,6.5 -8.3,0.7 -16.5,1.3 -24.8,2 -23.1,1.9 -46.3,3.8 -69.4,5.6 -47,4 -94.1,7.8 -141.1,11.6 -29.7,2.4 -59.5,4.9 -89.1,7.3 -18.7,1.6 -37.3,3.2 -55.9,4.6 -44.5,3.7 -88.8,7.3 -133,10.9 -2.1,0.2 -4.2,0.4 -6.3,0.6 -27.7,2.3 -55.5,4.6 -83.1,6.9 -39.4,3.3 -78.7,6.6 -117.8,9.9 -15.6,1.3 -31.3,2.6 -46.8,3.9 -4.8,0.4 -9.5,0.9 -14.3,1.2 -31.6,2.6 -63,5.3 -94.2,8 -4.7,0.3 -9.2,0.7 -13.8,1.1 -21.5,1.8 -42.8,3.6 -64,5.5 -90.2,7.6 -178.8,15.2 -265.3,22.7 -10.5,0.9 -20.8,1.8 -31.3,2.7 -6.3,0.6 -12.7,1.1 -18.9,1.6 -8.5,0.8 -16.9,1.5 -25.4,2.3 -16.8,1.4 -33.5,2.8 -50.2,4.3 -322.5,28.3 -610.26,54.9 -832.41,77.4 -22.63,2.3 -44.62,4.5 -65.77,6.7 -52.84,5.5 -101.15,10.8 -144.56,15.8 -123.08,13.9 -206.92,25.6 -240.21,33.9 -179.69,45.4 -479.38,164.5 -663.17,288.4 -110.78,74.7 -179.31,151 -153.86,214 32.36,80.1 102.67,128.5 174.84,164 62.56,31 126.53,52.2 168.41,76.5 2.42,1.4 4.75,2.8 7.08,4.1 7.74,4.9 14.55,9.9 20.33,15.1 0.94,1 1.87,1.7 2.98,2.8 16.33,14.9 43.18,39.7 81.97,68.8 25.83,19.4 56.88,40.6 93.71,62.3 l 0.56,0.3 c 160.76,94.1 429.58,193.7 839.16,164.1 0,0 801.54,-63.3 1801.54,-145.2 h 0.1 c 99.7,-8.1 201.3,-16.5 304.3,-25 h 0.1 c 34.2,-2.8 68.8,-5.6 103.3,-8.5 52,-4.3 104.2,-8.7 156.6,-13 h 0.1 c 87.4,-7.2 175.3,-14.5 263.6,-21.9 17.7,-1.5 35.4,-3 53,-4.4 35.4,-2.9 70.7,-5.9 106.1,-8.8 70.8,-6 141.6,-12 212.4,-17.9 35.2,-3 70.5,-6 105.7,-8.9 125.9,-10.6 251.1,-21.2 374.5,-31.9 h 0.6 c 356.5,-30.6 698.4,-60.4 1001.6,-87.9 h 0.1 c 16.1,-1.4 32.1,-2.9 47.8,-4.3 178,-16.2 341.8,-31.5 486.3,-45.5 69.1,-6.8 133.8,-13.2 193.4,-19.3 216.2,-22 366.9,-39.7 425.8,-51.1 152.9,-29.6 323.7,-57.2 479.6,-80.3 12.8,-1.9 25.7,-3.8 38.2,-5.6 l 2,-0.3 c 19.3,-2.9 38.3,-5.6 57,-8.3 l 1.7,-0.2 c 21.6,-3.1 42.9,-6.1 63.5,-9 30.1,-4.2 59,-8.1 86.2,-11.8 12,-1.6 23.4,-3.2 34.7,-4.7 134.7,-17.9 224.3,-28.5 224.3,-28.5 0,0 0.5,-2.5 1.3,-6.9 l 0.3,-1.2 c 0.2,-1.2 0.5,-2.5 0.8,-4 0.4,-2.8 1.1,-6.2 1.6,-10 0.9,-5.1 1.8,-10.8 2.6,-17.4 l 0.1,-0.1 c 0.2,-1.6 0.5,-3.2 0.7,-4.9 0.7,-5.4 1.5,-11.2 2.2,-17.4 0.4,-4.3 0.9,-8.9 1.4,-13.5 0.1,-2.5 0.4,-5.1 0.6,-7.7 0.3,-2.9 0.5,-5.8 0.6,-8.7 0.3,-4.2 0.6,-8.5 0.9,-12.9 0.1,-1.7 0.2,-3.5 0.2,-5.3 0.1,-3 0.2,-6.2 0.3,-9.3 0.1,-1.7 0.1,-3.3 0.1,-4.8 0.1,-3.2 0.2,-6.5 0.2,-9.6 0,-1.6 0,-3.3 0.1,-5" /></g><g
         transform="scale(1.08258)"
         id="g368"><path
           id="path370"
           style="fill:#f99746;fill-opacity:1;fill-rule:nonzero;stroke:none"
           d="m 16300,11025 c -0.1,-3.2 -0.1,-6.5 -0.2,-9.8 -1.1,-70.6 -15.4,-149.3 -65.4,-194.6 -1.6,-1.6 -3.4,-3.1 -5.2,-4.6 -3.5,-2.8 -7.3,-5.6 -11,-8.2 h -0.1 v -0.1 c -1.9,-1.2 -4,-2.4 -6,-3.7 -2,-1.1 -4,-2.3 -6.1,-3.4 h -0.1 c -2.2,-1.2 -4.3,-2.2 -6.5,-3.2 -2.2,-1 -4.5,-2.1 -6.8,-3 -2.2,-0.9 -4.6,-1.8 -7,-2.6 l -2.2,-0.7 v 0 l -2.2,-0.8 -2.3,-0.7 v -0.1 c -0.8,-0.2 -1.7,-0.5 -2.5,-0.8 v -0.1 c -0.9,-0.2 -1.8,-0.4 -2.7,-0.8 -0.9,-0.3 -1.8,-0.6 -2.6,-0.9 h -0.1 v 0 c -1,-0.3 -1.9,-0.6 -2.8,-1 -1,-0.3 -2,-0.6 -3.1,-0.9 h -0.1 c -1,-0.4 -1.9,-0.7 -3,-1 -1,-0.4 -2.1,-0.7 -3.1,-1.1 -2.3,-0.7 -4.6,-1.5 -6.9,-2.2 h -0.1 c -1.1,-0.4 -2.3,-0.7 -3.4,-1.1 h -0.1 v -0.1 c -1.2,-0.4 -2.5,-0.8 -3.7,-1.1 -0.9,-0.3 -1.7,-0.6 -2.7,-0.9 -9.7,-3.1 -20.5,-6.6 -32.3,-10.3 -2.2,-0.7 -4.4,-1.3 -6.7,-2.1 -31.1,-9.8 -68.8,-21.4 -112.1,-34.5 -4.5,-1.3 -8.9,-2.7 -13.6,-4.1 -7.5,-2.3 -15.3,-4.6 -23.2,-7 -1.7,-0.4 -3.4,-1 -5.2,-1.5 -2.3,-0.7 -4.8,-1.4 -7.2,-2.2 -2.4,-0.7 -4.9,-1.4 -7.4,-2.1 -2.5,-0.8 -5,-1.5 -7.5,-2.3 -2.4,-0.7 -5,-1.5 -7.5,-2.2 -2.6,-0.8 -5,-1.5 -7.5,-2.3 -2.7,-0.7 -5.3,-1.5 -7.8,-2.3 -2.6,-0.7 -5.3,-1.5 -7.8,-2.2 v -0.1 c -2.6,-0.8 -5.2,-1.5 -7.9,-2.3 -1.8,-0.5 -3.7,-1.1 -5.6,-1.7 l -2.3,-0.7 c -2.7,-0.7 -5.3,-1.5 -8,-2.2 -13.5,-4 -27.1,-8 -41.2,-12 -8,-2.5 -16.2,-4.8 -24.6,-7.2 -7.1,-2.1 -14.2,-4.1 -21.4,-6.2 -5.4,-1.6 -10.8,-3.2 -16.3,-4.7 -21.4,-6.1 -43.3,-12.3 -65.6,-18.7 -4.6,-1.3 -9.1,-2.5 -13.6,-3.8 -7.9,-2.2 -15.6,-4.4 -23.6,-6.6 -7.1,-2.1 -14.3,-4 -21.5,-6.1 -8,-2.2 -16.1,-4.5 -24.2,-6.7 -268.4,-74.5 -593.8,-158.1 -895.6,-218.8 -10.6,-2.1 -21.2,-4.2 -31.7,-6.3 -5.3,-1 -10.4,-2.1 -15.7,-3.1 -10.5,-2 -21,-4 -31.4,-5.9 -31.2,-6 -62.2,-11.7 -92.7,-17 -10.1,-1.8 -20.2,-3.6 -30.3,-5.2 -5,-0.9 -10,-1.7 -15,-2.6 -10,-1.6 -20,-3.2 -29.9,-4.9 -9.8,-1.6 -19.7,-3.1 -29.5,-4.6 -9.7,-1.5 -19.4,-3 -29.1,-4.4 -9.6,-1.4 -19.3,-2.8 -28.7,-4.1 -9.6,-1.4 -19.1,-2.7 -28.4,-4 -9.4,-1.2 -18.7,-2.4 -28,-3.6 -4.5,-0.6 -9.1,-1.1 -13.8,-1.7 -18.2,-2.2 -36.3,-4.3 -53.9,-6.1 -4.5,-0.5 -8.9,-1 -13.3,-1.3 -8.8,-0.9 -17.4,-1.7 -26,-2.6 -17.1,-1.5 -33.9,-2.8 -50.4,-3.9 -12.3,-0.9 -24.4,-1.6 -36.2,-2.1 -7.9,-0.5 -15.8,-0.8 -23.6,-1 -11.5,-0.5 -22.9,-0.8 -33.9,-0.9 -14.8,-0.3 -29.1,-0.2 -42.9,0.1 -7,0.1 -13.9,0.4 -20.6,0.7 -3.3,0.1 -6.6,0.1 -10,0.4 -6.5,0.3 -13,0.7 -19.4,1.2 -2.2,0.1 -4.5,0.3 -7,0.5 l -1.7,0.1 c -1.5,0.2 -3.1,0.3 -4.7,0.4 -5.9,0.4 -12.2,0.8 -18.9,1.4 -1.8,0.1 -3.5,0.3 -5.4,0.3 -2.3,0.2 -4.5,0.4 -6.8,0.6 -3.4,0.2 -7.1,0.5 -10.7,0.7 -2,0.2 -4,0.3 -5.9,0.5 -2,0.1 -4,0.3 -5.9,0.5 -4.2,0.3 -8.3,0.5 -12.5,0.9 -4.2,0.3 -8.4,0.7 -12.9,0.9 -2.2,0.2 -4.4,0.3 -6.7,0.5 -5.4,0.5 -11.1,0.8 -16.8,1.3 -2.8,0.2 -5.5,0.4 -8.1,0.7 -5.8,0.4 -11.6,0.8 -17.6,1.3 -2.5,0.2 -5,0.3 -7.7,0.5 -7.3,0.6 -14.7,1.2 -22.5,1.7 -21.3,1.6 -44.1,3.4 -68.2,5.1 -2.8,0.3 -5.9,0.5 -8.9,0.8 -5.9,0.4 -12,0.8 -18.3,1.3 -9.2,0.7 -18.6,1.4 -28.2,2.1 -3.9,0.4 -7.7,0.7 -11.6,1 -9.1,0.6 -18.3,1.4 -27.6,2 -3.3,0.3 -6.7,0.6 -10.1,0.8 -6.3,0.5 -12.8,1 -19.2,1.5 l -21.4,1.6 c -3.8,0.3 -7.4,0.6 -11.3,0.9 -3.5,0.3 -7.1,0.5 -10.7,0.8 -5.6,0.4 -11.3,0.9 -17.1,1.3 -33.1,2.5 -67.5,5.2 -103.3,7.8 -5.3,0.5 -10.4,0.9 -15.7,1.3 -8,0.6 -15.9,1.3 -24,1.8 -18.7,1.5 -37.8,2.9 -57.1,4.4 -1.5,0.2 -3,0.3 -4.4,0.4 -16.9,1.3 -33.9,2.6 -51,3.9 -0.9,0.1 -1.7,0.2 -2.4,0.2 -102.5,7.9 -212.9,16.5 -329.5,25.5 -5.9,0.5 -11.9,1 -17.8,1.4 -23.5,1.8 -47.4,3.7 -71.5,5.5 -15.1,1.3 -30.3,2.5 -45.5,3.7 -0.8,0 -1.7,0.1 -2.5,0.2 -17.4,1.3 -34.9,2.7 -52.6,4.1 -2.1,0.1 -4.2,0.3 -6.4,0.4 -30.9,2.5 -62.3,5 -93.9,7.4 -8.1,0.7 -16.1,1.3 -24.3,2 -2.5,0.1 -4.9,0.3 -7.4,0.5 -27.7,2.2 -55.7,4.4 -83.6,6.6 -12.4,1 -24.6,1.9 -36.9,2.9 -8.2,0.7 -16.3,1.3 -24.6,1.9 -16.5,1.4 -33.1,2.7 -49.8,4 -25,2 -50.1,3.9 -75.2,6 -2.4,0.1 -4.6,0.3 -6.8,0.4 -10.4,1 -20.8,1.7 -31.1,2.6 l -2.3,0.1 c -31,2.5 -62,5 -93.3,7.4 -0.8,0.1 -1.7,0.2 -2.6,0.3 -3.3,0.3 -6.5,0.5 -9.7,0.7 701.9,391.4 902.4,1063.4 902.4,1063.4 h 0.6 c 356.5,-30.6 698.4,-60.4 1001.6,-87.9 h 0.1 c 16.1,-1.4 32.1,-2.9 47.8,-4.3 178,-16.2 341.8,-31.5 486.3,-45.5 69.1,-6.8 133.8,-13.2 193.4,-19.3 216.2,-22 366.9,-39.7 425.8,-51.1 152.9,-29.6 323.7,-57.2 479.6,-80.3 12.8,-1.9 25.7,-3.8 38.2,-5.6 l 2,-0.3 c 19.3,-2.9 38.3,-5.6 57,-8.3 l 1.7,-0.2 c 21.6,-3.1 42.9,-6.1 63.5,-9 30.1,-4.2 59,-8.1 86.2,-11.8 12,-1.6 23.4,-3.2 34.7,-4.7 134.7,-17.9 224.3,-28.5 224.3,-28.5 0,0 0.5,-2.5 1.3,-6.9 l 0.3,-1.2 c 0.2,-1.2 0.5,-2.5 0.8,-4 0.4,-2.8 1.1,-6.2 1.6,-10 0.9,-5.1 1.8,-10.8 2.6,-17.4 l 0.1,-0.1 c 0.2,-1.6 0.5,-3.2 0.7,-4.9 0.7,-5.4 1.5,-11.2 2.2,-17.4 0.4,-4.3 0.9,-8.9 1.4,-13.5 0.1,-2.5 0.4,-5.1 0.6,-7.7 0.3,-2.9 0.5,-5.8 0.6,-8.7 0.3,-4.2 0.6,-8.5 0.9,-12.9 0.1,-1.7 0.2,-3.5 0.2,-5.3 0.1,-3 0.2,-6.2 0.3,-9.3 0.1,-1.7 0.1,-3.3 0.1,-4.8 0.1,-3.2 0.2,-6.5 0.2,-9.6 0,-1.6 0,-3.3 0.1,-5" /></g><g
         transform="scale(1.05447)"
         id="g372"><path
           id="path374"
           style="fill:#d2a393;fill-opacity:1;fill-rule:nonzero;stroke:none"
           d="m 16253.2,10968.1 v 0 c 15.8,4.6 31.2,9.1 46.2,13.5 0.2,0 0.4,0.1 0.6,0.2 -15.2,-4.5 -30.8,-9.1 -46.8,-13.7" /></g><g
         transform="scale(1.05443)"
         id="g376"><path
           id="path378"
           style="fill:#e37e2f;fill-opacity:1;fill-rule:nonzero;stroke:none"
           d="m 16253.8,10968.5 c 0,0 0,0 0,0.1 14.4,4.1 28.5,8.2 42.3,12.3 1.2,0.3 2.6,0.7 3.9,1.1 -15.1,-4.4 -30.4,-8.9 -46.2,-13.5" /></g><g
         transform="scale(1.0555)"
         id="g380"><path
           id="path382"
           style="fill:#d2a393;fill-opacity:1;fill-rule:nonzero;stroke:none"
           d="m 16292.2,10973.4 c 0.2,0.1 0.3,0.1 0.5,0.2 2.1,0.6 4.2,1.2 6.4,1.8 0.2,0.1 0.6,0.2 0.9,0.3 -2.6,-0.7 -5.2,-1.5 -7.8,-2.3" /></g><g
         transform="scale(1.05544)"
         id="g384"><path
           id="path386"
           style="fill:#e37e2f;fill-opacity:1;fill-rule:nonzero;stroke:none"
           d="m 16293.6,10974.2 c 1.1,0.3 2.2,0.7 3.3,1 1,0.3 2.1,0.6 3.1,0.9 -2.2,-0.6 -4.3,-1.3 -6.4,-1.9" /></g><g
         transform="scale(1.05617)"
         id="g388"><path
           id="path390"
           style="fill:#d2a393;fill-opacity:1;fill-rule:nonzero;stroke:none"
           d="m 16293.8,10970 v 0 c 1.6,0.5 3.3,1 4.9,1.4 0.4,0.2 0.9,0.3 1.3,0.4 -2.1,-0.6 -4.2,-1.2 -6.2,-1.8" /></g><g
         transform="scale(1.05608)"
         id="g392"><path
           id="path394"
           style="fill:#e37e2f;fill-opacity:1;fill-rule:nonzero;stroke:none"
           d="m 16295.1,10970.9 v 0 c 1.6,0.5 3.3,1 4.9,1.4 -1.6,-0.4 -3.3,-0.9 -4.9,-1.4" /></g><g
         transform="scale(1.05852)"
         id="g396"><path
           id="path398"
           style="fill:#d2a393;fill-opacity:1;fill-rule:nonzero;stroke:none"
           d="m 16268.1,10948.7 c 0.3,0.1 0.6,0.2 0.9,0.3 4.9,1.5 9.8,2.9 14.7,4.3 1.5,0.5 3.1,1 4.6,1.4 3.5,1.1 7.1,2.1 10.6,3.2 0.3,0.1 0.7,0.2 1.1,0.3 -10.4,-3.1 -21.1,-6.3 -31.9,-9.5" /></g><g
         transform="scale(1.05844)"
         id="g400"><path
           id="path402"
           style="fill:#e37e2f;fill-opacity:1;fill-rule:nonzero;stroke:none"
           d="m 16270.1,10949.8 c 1.6,0.4 3,0.9 4.5,1.3 2.5,0.8 5.1,1.5 7.7,2.3 0.8,0.2 1.6,0.5 2.5,0.7 -4.8,-1.4 -9.7,-2.9 -14.7,-4.3 m 19.3,5.7 c 0.2,0 0.4,0.1 0.6,0.2 2.5,0.7 5.1,1.5 7.6,2.2 0.8,0.3 1.6,0.5 2.4,0.7 -3.5,-1 -7.1,-2.1 -10.6,-3.1" /></g><g
         transform="scale(1.05963)"
         id="g404"><path
           id="path406"
           style="fill:#d2a393;fill-opacity:1;fill-rule:nonzero;stroke:none"
           d="m 16289.1,10948.5 c 0.9,0.3 1.7,0.6 2.6,0.8 1.5,0.5 3,0.9 4.5,1.4 0.3,0 0.6,0.1 0.8,0.2 0.5,0.2 1,0.3 1.6,0.5 0.3,0.1 0.6,0.2 0.9,0.3 0.2,0 0.3,0 0.5,0.1 -3.6,-1.1 -7.2,-2.2 -10.9,-3.3" /></g><g
         transform="scale(1.05954)"
         id="g408"><path
           id="path410"
           style="fill:#e37e2f;fill-opacity:1;fill-rule:nonzero;stroke:none"
           d="m 16293.1,10950.3 c 1,0.2 1.8,0.5 2.6,0.8 0.6,0.1 1.3,0.3 1.9,0.5 -1.5,-0.4 -3,-0.9 -4.5,-1.3 m 5.3,1.6 c 0.6,0.1 1,0.3 1.6,0.4 -0.6,-0.1 -1,-0.3 -1.6,-0.4" /></g><g
         transform="scale(1.0645)"
         id="g412"><path
           id="path414"
           style="fill:#d2a393;fill-opacity:1;fill-rule:nonzero;stroke:none"
           d="m 16244.5,10907.4 c 1,0.3 2,0.6 3,0.9 7.9,2.4 15.6,4.7 23.1,7 10.1,3.1 19.9,6 29.4,8.9 -17.4,-5.3 -36,-10.9 -55.5,-16.8" /></g><g
         transform="scale(1.06258)"
         id="g416"><path
           id="path418"
           style="fill:#e37e2f;fill-opacity:1;fill-rule:nonzero;stroke:none"
           d="m 16276.8,10928 c 0.4,0.1 0.8,0.2 1.1,0.4 4.8,1.4 9.3,2.8 13.9,4.1 2.7,0.9 5.5,1.7 8.2,2.5 -7.5,-2.3 -15.2,-4.6 -23.2,-7" /></g><g
         transform="scale(1.06991)"
         id="g420"><path
           id="path422"
           style="fill:#d2a393;fill-opacity:1;fill-rule:nonzero;stroke:none"
           d="m 16235,10874.3 c 12.2,3.8 23.7,7.4 34.6,10.8 10.4,3.2 20.2,6.3 29.4,9.1 0.3,0.1 0.7,0.3 1,0.4 -19.1,-6.1 -40.8,-12.8 -65,-20.3" /></g><g
         transform="scale(1.06984)"
         id="g424"><path
           id="path426"
           style="fill:#e37e2f;fill-opacity:1;fill-rule:nonzero;stroke:none"
           d="m 16270.6,10885.7 c 8.5,2.7 16.4,5.2 24.1,7.6 1.8,0.6 3.6,1.1 5.3,1.6 -9.2,-2.9 -19,-5.9 -29.4,-9.2" /></g><g
         transform="scale(1.07238)"
         id="g428"><path
           id="path430"
           style="fill:#d2a393;fill-opacity:1;fill-rule:nonzero;stroke:none"
           d="m 16279.5,10874.8 c 2,0.7 4,1.3 6,1.9 4.9,1.6 9.6,3.1 13.9,4.5 0.2,0.1 0.4,0.1 0.6,0.2 -6.3,-2.1 -13.1,-4.2 -20.5,-6.6" /></g><g
         transform="scale(1.07234)"
         id="g432"><path
           id="path434"
           style="fill:#e37e2f;fill-opacity:1;fill-rule:nonzero;stroke:none"
           d="m 16286,10877.1 c 3.6,1.1 6.8,2.2 10.1,3.3 0.9,0.3 1.8,0.5 2.7,0.8 0.5,0.2 0.8,0.3 1.2,0.4 -4.4,-1.4 -9,-2.9 -14,-4.5" /></g><g
         transform="scale(1.07319)"
         id="g436"><path
           id="path438"
           style="fill:#d2a393;fill-opacity:1;fill-rule:nonzero;stroke:none"
           d="m 16289.7,10873.8 v 0 c 1.4,0.5 2.8,0.9 4.2,1.4 0.6,0.2 1.3,0.4 1.9,0.6 1.5,0.5 2.8,0.9 4.2,1.4 -3.3,-1.1 -6.7,-2.2 -10.3,-3.4" /></g><g
         transform="scale(1.07829)"
         id="g440"><path
           id="path442"
           style="fill:#e37e2f;fill-opacity:1;fill-rule:nonzero;stroke:none"
           d="m 16212.6,10822.4 v 0 h 0.1 c 1.1,0.4 2.3,0.8 3.5,1.2 h 0.1 c 0.1,0 0.3,0.1 0.5,0.1 -1.4,-0.4 -2.8,-0.8 -4.2,-1.3 m 6.2,2 c 1.4,0.5 2.8,0.9 4.3,1.4 1,0.4 2.2,0.7 3.2,1.1 1.1,0.3 2,0.6 3,1 h 0.1 c 0.1,0 0.1,0 0.1,0 -2.1,-0.7 -4.2,-1.4 -6.6,-2.2 -1.4,-0.4 -2.7,-0.8 -4.1,-1.3 m 16.5,5.4 v 0 h 0.1 c 0.4,0.2 0.9,0.3 1.4,0.5 -0.5,-0.2 -1.1,-0.3 -1.5,-0.5 m 3.3,1.1 c 0.4,0.2 0.7,0.3 1.2,0.4 -0.5,-0.1 -0.8,-0.3 -1.2,-0.4 m 2.1,0.7 v 0 c 0.5,0.2 1,0.3 1.4,0.5 -0.4,-0.2 -0.9,-0.3 -1.4,-0.5 m 2.5,0.9 v 0 l 0.9,0.2 c -0.3,0 -0.6,-0.1 -0.9,-0.2 m 4.6,1.5 v 0.1 l 1.3,0.4 c -0.4,-0.2 -0.8,-0.3 -1.3,-0.5 m 12.3,4.7 c 1.2,0.5 2.5,1.1 3.7,1.6 2.3,1.1 4.4,2.1 6.5,3.2 v 0 c -3.3,-1.7 -6.7,-3.3 -10.2,-4.8 m 17,8.6 c 1,0.7 2,1.3 3.1,1.9 -1.1,-0.6 -2.1,-1.3 -3.1,-1.9 m 5.5,3.5 v 0 h 0.1 c -0.1,0 -0.1,0 -0.1,0 m 16.4,12.8 c 0,0 0,0 0,0 0.4,0.4 0.7,0.7 1,1 -0.3,-0.3 -0.6,-0.7 -1,-1" /></g><g
         transform="scale(1.08258)"
         id="g444"><path
           id="path446"
           style="fill:#d2a393;fill-opacity:1;fill-rule:nonzero;stroke:none"
           d="m 16289.2,10922.7 c 1.2,5.1 2.3,10.3 3.3,15.5 0,0 0,0.1 0,0.1 0,0.2 0.1,0.3 0.1,0.5 5.3,27.8 7.2,56.7 7.4,84.1 0,0.1 0,0.3 0,0.4 -0.1,-32.9 -3,-67.8 -10.8,-100.6" /></g><g
         transform="scale(1.08258)"
         id="g448"><path
           id="path450"
           style="fill:#e37e2f;fill-opacity:1;fill-rule:nonzero;stroke:none"
           d="m 16292.5,10938.2 c 0,0 0,0.1 0,0.1 0,0 0,-0.1 0,-0.1 m 0.1,0.6 c 4.7,25.2 6.8,51.3 7.2,76.4 0.1,2.6 0.1,5.2 0.2,7.7 -0.2,-27.4 -2.1,-56.3 -7.4,-84.1" /></g><g
         transform="scale(1.08258)"
         id="g452"><path
           id="path454"
           style="fill:#d2a393;fill-opacity:1;fill-rule:nonzero;stroke:none"
           d="m 16300,11025.9 c 0,0 0,0.1 0,0.1 -0.1,10 -0.3,19.8 -0.7,29.2 0,0.2 0,0.4 0,0.5 0.4,-9.6 0.7,-19.6 0.7,-29.8" /></g><g
         transform="scale(1.08258)"
         id="g456"><path
           id="path458"
           style="fill:#e37e2f;fill-opacity:1;fill-rule:nonzero;stroke:none"
           d="m 16300,11026 c -0.1,1.3 -0.1,2.5 -0.1,3.7 0,0.1 0,0.2 0,0.3 v 0 0 c 0,3.1 -0.1,6.4 -0.2,9.6 0,1.5 0,3.1 -0.1,4.8 -0.1,3.1 -0.2,6.3 -0.3,9.3 0,0.5 0,1 0,1.5 0.4,-9.4 0.6,-19.2 0.7,-29.2" /></g><g
         transform="scale(1.08252)"
         id="g460"><path
           id="path462"
           style="fill:#d2a393;fill-opacity:1;fill-rule:nonzero;stroke:none"
           d="m 16300,11060.2 c -0.1,0.3 -0.1,0.6 -0.1,1 -0.3,5 -0.5,9.8 -0.9,14.6 -0.1,1.4 -0.3,2.9 -0.4,4.3 -0.2,2.6 -0.4,5.2 -0.6,7.8 -0.1,0.3 -0.1,0.6 -0.1,0.9 0.8,-9 1.5,-18.6 2.1,-28.6" /></g><g
         transform="scale(1.08251)"
         id="g464"><path
           id="path466"
           style="fill:#e37e2f;fill-opacity:1;fill-rule:nonzero;stroke:none"
           d="m 16300,11061.2 c -0.3,3.9 -0.5,7.7 -0.7,11.4 -0.1,1.1 -0.2,2.1 -0.2,3.2 0.3,-4.7 0.6,-9.6 0.9,-14.6 m -1.3,19 c 0,0.3 -0.1,0.7 -0.1,1.1 -0.2,2.2 -0.4,4.5 -0.5,6.6 0.1,-2.5 0.4,-5.1 0.6,-7.7" /></g><g
         transform="scale(1.08237)"
         id="g468"><path
           id="path470"
           style="fill:#d2a393;fill-opacity:1;fill-rule:nonzero;stroke:none"
           d="m 16300,11090.7 c -0.1,0.7 -0.2,1.4 -0.3,2 -0.3,4.1 -0.8,8.1 -1.2,11.9 -0.4,4.6 -1,8.9 -1.6,13 -0.1,1.2 -0.3,2.4 -0.4,3.6 v 0.1 0 c 1.2,-9.2 2.4,-19.5 3.5,-30.6" /></g><g
         transform="scale(1.08236)"
         id="g472"><path
           id="path474"
           style="fill:#e37e2f;fill-opacity:1;fill-rule:nonzero;stroke:none"
           d="m 16300,11092.9 c -0.4,3.8 -0.7,7.6 -1.1,11.1 -0.1,0.3 -0.1,0.5 -0.1,0.8 0.4,-3.8 0.8,-7.8 1.2,-11.9 m -2.8,24.8 c -0.2,1.3 -0.3,2.5 -0.5,3.7 h 0.1 v 0 c 0.1,-1.2 0.2,-2.4 0.4,-3.7" /></g><g
         transform="scale(1.08258)"
         id="g476"><path
           id="path478"
           style="fill:#ed8736;fill-opacity:1;fill-rule:nonzero;stroke:none"
           d="m 15831.2,10683.4 c -60,251 -253.3,355.8 -253.3,355.8 l 715.5,80 c 0.7,-5.4 1.5,-11.2 2.2,-17.4 0.4,-4.2 0.9,-8.7 1.4,-13.2 0,-0.1 0,-0.3 0,-0.4 0.1,-2.5 0.4,-5 0.6,-7.6 0.3,-2.9 0.5,-5.8 0.6,-8.7 0.3,-4 0.6,-8.2 0.9,-12.4 0,-1.2 0.1,-2.5 0.2,-3.8 0,-0.6 0,-1.3 0,-2 0.1,-3 0.2,-6.2 0.3,-9.3 0.1,-1.7 0.1,-3.3 0.1,-4.8 0.1,-3.2 0.2,-6.5 0.2,-9.6 v 0 c 0,-0.1 0,-0.2 0,-0.3 0,-1.3 0,-2.5 0.1,-3.8 0,-0.9 0,-1.8 0,-2.6 0,-0.1 0,-0.3 0,-0.4 -0.1,-2.5 -0.1,-5.1 -0.2,-7.7 -0.4,-25.1 -2.5,-51.2 -7.2,-76.4 0,-0.2 -0.1,-0.3 -0.1,-0.5 0,0 0,-0.1 0,-0.1 -1,-5.2 -2.1,-10.4 -3.3,-15.5 -9.4,-39.3 -26,-75.4 -53.8,-101.2 -0.2,-0.3 -0.6,-0.6 -1,-0.9 0,0 0,0 0,0 -5.1,-4.6 -10.4,-8.9 -16.2,-12.8 h -0.1 v 0 c -0.9,-0.5 -1.6,-1 -2.4,-1.6 -1,-0.6 -2.1,-1.2 -3.1,-1.8 -2.2,-1.4 -4.4,-2.6 -6.7,-3.8 v 0 c -2.2,-1.2 -4.3,-2.2 -6.5,-3.2 -1.2,-0.6 -2.5,-1.1 -3.7,-1.7 -3.3,-1.4 -6.6,-2.7 -10.1,-3.9 -0.3,-0.1 -0.6,-0.2 -0.9,-0.3 l -1.3,-0.4 v 0 c -1.2,-0.4 -2.4,-0.8 -3.7,-1.3 l -0.8,-0.2 v -0.1 c -0.4,-0.1 -0.7,-0.2 -1.1,-0.3 -0.5,-0.2 -0.9,-0.3 -1.4,-0.5 v 0 c -0.4,-0.1 -0.6,-0.2 -0.9,-0.3 -0.5,-0.1 -0.8,-0.2 -1.2,-0.4 -0.7,-0.2 -1.2,-0.4 -1.9,-0.6 -0.4,-0.2 -0.9,-0.3 -1.3,-0.5 h -0.1 v 0 c -1.9,-0.6 -3.7,-1.2 -5.8,-1.9 0,0 0,0 -0.1,0 h -0.1 c -1,-0.4 -1.9,-0.7 -3,-1 -1,-0.4 -2.1,-0.7 -3.1,-1.1 -1.5,-0.4 -2.9,-0.9 -4.4,-1.4 -0.6,-0.2 -1.3,-0.4 -1.9,-0.6 -0.2,-0.1 -0.4,-0.1 -0.6,-0.2 h -0.1 c -1.1,-0.4 -2.3,-0.7 -3.4,-1.1 h -0.1 v -0.1 0 c -0.6,-0.2 -1.3,-0.4 -1.9,-0.6 -0.2,-0.1 -0.4,-0.1 -0.6,-0.2 -0.3,-0.1 -0.7,-0.2 -1.2,-0.3 -0.9,-0.3 -1.7,-0.6 -2.7,-0.9 -3.2,-1 -6.4,-2.1 -9.9,-3.2 -2,-0.6 -3.9,-1.2 -5.9,-1.9 -5.4,-1.7 -11,-3.5 -16.9,-5.3 -0.3,-0.1 -0.7,-0.2 -1.1,-0.3 -1.6,-0.6 -3.4,-1.1 -5.2,-1.7 -7.6,-2.3 -15.5,-4.8 -23.8,-7.4 -10.8,-3.4 -22.1,-6.9 -34.1,-10.6 -5.7,-1.7 -11.4,-3.5 -17.2,-5.3 -9.4,-2.8 -19,-5.7 -28.9,-8.7 -2.7,-0.8 -5.4,-1.6 -8.1,-2.5 -4.5,-1.3 -8.9,-2.7 -13.6,-4.1 -0.3,-0.1 -0.7,-0.2 -1.1,-0.3 -0.9,-0.3 -1.9,-0.6 -2.9,-0.9 -6.1,-1.8 -12.4,-3.7 -18.8,-5.6 -0.2,-0.1 -0.2,-0.1 -0.4,-0.2 -0.3,-0.1 -0.7,-0.1 -1,-0.2 -0.5,-0.2 -1,-0.3 -1.5,-0.5 -0.2,-0.1 -0.5,-0.1 -0.8,-0.2 -0.6,-0.2 -1.3,-0.4 -1.9,-0.6 -0.7,-0.2 -1.6,-0.5 -2.5,-0.7 -0.8,-0.3 -1.7,-0.6 -2.5,-0.8 -2,-0.6 -4.2,-1.2 -6.2,-1.9 -0.4,-0.1 -0.7,-0.2 -1.1,-0.3 -0.7,-0.2 -1.6,-0.4 -2.3,-0.6 -2.5,-0.8 -5,-1.5 -7.5,-2.3 -0.2,0 -0.4,-0.1 -0.5,-0.2 -1.5,-0.4 -3.1,-0.9 -4.6,-1.3 -0.8,-0.2 -1.6,-0.5 -2.4,-0.7 -2.6,-0.8 -5,-1.5 -7.5,-2.3 -1.5,-0.4 -2.9,-0.8 -4.4,-1.2 -0.3,-0.1 -0.6,-0.2 -0.9,-0.3 -1.4,-0.4 -2.8,-0.8 -4.2,-1.3 -0.3,-0.1 -0.8,-0.2 -1.3,-0.3 -1.5,-0.5 -3.2,-1 -4.8,-1.4 v -0.1 0 c -1.3,-0.4 -2.6,-0.7 -3.9,-1.1 -0.3,-0.1 -0.7,-0.2 -1,-0.3 -1,-0.3 -2,-0.6 -3,-0.9 -1,-0.3 -2.1,-0.6 -3.1,-0.9 -0.2,-0.1 -0.3,-0.1 -0.5,-0.2 -2.7,-0.7 -5.3,-1.5 -7.9,-2.3 -0.2,-0.1 -0.4,-0.1 -0.6,-0.2 -1.3,-0.3 -2.6,-0.7 -3.8,-1 -13.5,-4 -27.1,-8 -41.2,-12" /></g><path
         id="path480"
         style="fill:#2b478b;fill-opacity:1;fill-rule:nonzero;stroke:none"
         d="m 13380.5,12041.7 v 0 c -25.3,2.2 -43.9,27.1 -41.3,55.5 l 4.9,54.6 c 2.6,28.3 25.4,49.7 50.7,47.5 25.3,-2.2 43.9,-27.1 41.3,-55.5 l -4.9,-54.6 c -2.6,-28.3 -25.4,-49.7 -50.7,-47.5" /><path
         id="path482"
         style="fill:#2b478b;fill-opacity:1;fill-rule:nonzero;stroke:none"
         d="m 13143.3,12062.2 v 0 c -25.3,2.1 -43.9,27.1 -41.4,55.5 l 5,54.5 c 2.5,28.4 25.3,49.8 50.6,47.6 25.3,-2.2 43.9,-27.1 41.4,-55.5 l -5,-54.6 c -2.6,-28.3 -25.4,-49.7 -50.6,-47.5" /><path
         id="path484"
         style="fill:#2b478b;fill-opacity:1;fill-rule:nonzero;stroke:none"
         d="m 12906,12082.7 v 0 c -25.3,2.1 -43.9,27.1 -41.3,55.5 l 4.9,54.5 c 2.6,28.4 25.4,49.8 50.7,47.6 25.3,-2.2 43.9,-27.2 41.3,-55.5 l -4.9,-54.6 c -2.6,-28.3 -25.4,-49.7 -50.7,-47.5" /><path
         id="path486"
         style="fill:#2b478b;fill-opacity:1;fill-rule:nonzero;stroke:none"
         d="m 12668.7,12103.1 v 0 c -25.3,2.2 -43.8,27.2 -41.3,55.5 l 5,54.6 c 2.5,28.4 25.3,49.8 50.6,47.6 25.3,-2.2 43.9,-27.2 41.3,-55.5 l -4.9,-54.6 c -2.6,-28.3 -25.4,-49.8 -50.7,-47.6" /><path
         id="path488"
         style="fill:#2b478b;fill-opacity:1;fill-rule:nonzero;stroke:none"
         d="m 12431.5,12123.6 v 0 c -25.3,2.2 -43.9,27.2 -41.3,55.5 l 4.9,54.6 c 2.6,28.4 25.4,49.8 50.7,47.6 25.3,-2.2 43.9,-27.2 41.3,-55.5 l -4.9,-54.6 c -2.6,-28.4 -25.4,-49.8 -50.7,-47.6" /><path
         id="path490"
         style="fill:#2b478b;fill-opacity:1;fill-rule:nonzero;stroke:none"
         d="m 12194.2,12144.1 v 0 c -25.3,2.2 -43.9,27.2 -41.3,55.5 l 5,54.6 c 2.5,28.3 25.3,49.7 50.6,47.6 25.3,-2.2 43.9,-27.2 41.3,-55.5 l -4.9,-54.6 c -2.6,-28.4 -25.4,-49.8 -50.7,-47.6" /><path
         id="path492"
         style="fill:#2b478b;fill-opacity:1;fill-rule:nonzero;stroke:none"
         d="m 11957,12164.6 v 0 c -25.3,2.2 -43.9,27.2 -41.3,55.5 l 4.9,54.6 c 2.6,28.3 25.4,49.7 50.7,47.6 25.3,-2.2 43.9,-27.2 41.3,-55.6 l -5,-54.5 c -2.5,-28.4 -25.3,-49.8 -50.6,-47.6" /><path
         id="path494"
         style="fill:#2b478b;fill-opacity:1;fill-rule:nonzero;stroke:none"
         d="m 11719.7,12185.1 v 0 c -25.3,2.2 -43.9,27.2 -41.3,55.5 l 4.9,54.6 c 2.6,28.3 25.4,49.7 50.7,47.5 25.3,-2.1 43.9,-27.1 41.3,-55.5 l -4.9,-54.5 c -2.6,-28.4 -25.4,-49.8 -50.7,-47.6" /><path
         id="path496"
         style="fill:#2b478b;fill-opacity:1;fill-rule:nonzero;stroke:none"
         d="m 11482.5,12205.6 v 0 c -25.3,2.2 -43.9,27.1 -41.3,55.5 l 4.9,54.6 c 2.6,28.3 25.4,49.7 50.7,47.5 25.3,-2.2 43.8,-27.1 41.3,-55.5 l -5,-54.6 c -2.5,-28.3 -25.3,-49.7 -50.6,-47.5" /><path
         id="path498"
         style="fill:#2b478b;fill-opacity:1;fill-rule:nonzero;stroke:none"
         d="m 11250,12225.7 v 0 c -25.3,2.1 -43.9,27.1 -41.4,55.5 l 5,54.5 c 2.5,28.4 25.3,49.8 50.6,47.6 25.3,-2.2 43.9,-27.2 41.4,-55.5 l -5,-54.6 c -2.5,-28.3 -25.3,-49.7 -50.6,-47.5" /><path
         id="path500"
         style="fill:#2b478b;fill-opacity:1;fill-rule:nonzero;stroke:none"
         d="m 11012.7,12246.1 v 0 c -25.3,2.2 -43.9,27.2 -41.3,55.6 l 4.9,54.5 c 2.6,28.4 25.4,49.8 50.7,47.6 25.3,-2.2 43.9,-27.2 41.3,-55.5 l -4.9,-54.6 c -2.6,-28.3 -25.4,-49.7 -50.7,-47.6" /><path
         id="path502"
         style="fill:#2b478b;fill-opacity:1;fill-rule:nonzero;stroke:none"
         d="m 10775.4,12266.6 v 0 c -25.2,2.2 -43.8,27.2 -41.3,55.5 l 5,54.6 c 2.5,28.4 25.3,49.8 50.6,47.6 25.3,-2.2 43.9,-27.2 41.4,-55.5 l -5,-54.6 c -2.6,-28.3 -25.4,-49.8 -50.7,-47.6" /><path
         id="path504"
         style="fill:#2b478b;fill-opacity:1;fill-rule:nonzero;stroke:none"
         d="m 10481.5,12294.8 v 0 c -25.3,2.1 -43.9,27.1 -41.3,55.5 l 5,54.6 c 2.5,28.3 25.3,49.7 50.6,47.5 25.3,-2.2 43.9,-27.1 41.3,-55.5 l -4.9,-54.6 c -2.6,-28.3 -25.4,-49.7 -50.7,-47.5" /><path
         id="path506"
         style="fill:#2b478b;fill-opacity:1;fill-rule:nonzero;stroke:none"
         d="m 15969.1,11790.5 v 0 c -25.3,2.2 -43.8,27.1 -41.3,55.5 l 5,54.6 c 2.5,28.3 25.3,49.7 50.6,47.5 25.3,-2.2 43.9,-27.1 41.3,-55.5 l -4.9,-54.6 c -2.6,-28.3 -25.4,-49.7 -50.7,-47.5" /><path
         id="path508"
         style="fill:#2b478b;fill-opacity:1;fill-rule:nonzero;stroke:none"
         d="m 15731.9,11811 v 0 c -25.3,2.1 -43.9,27.1 -41.3,55.5 l 4.9,54.5 c 2.6,28.4 25.4,49.8 50.7,47.6 25.3,-2.2 43.9,-27.2 41.3,-55.5 l -5,-54.6 c -2.5,-28.3 -25.3,-49.7 -50.6,-47.5" /><path
         id="path510"
         style="fill:#2b478b;fill-opacity:1;fill-rule:nonzero;stroke:none"
         d="m 15494.6,11831.4 v 0 c -25.3,2.2 -43.9,27.2 -41.3,55.6 l 5,54.5 c 2.5,28.4 25.3,49.8 50.6,47.6 25.3,-2.2 43.9,-27.2 41.3,-55.5 l -4.9,-54.6 c -2.6,-28.3 -25.4,-49.7 -50.7,-47.6" /><path
         id="path512"
         style="fill:#2b478b;fill-opacity:1;fill-rule:nonzero;stroke:none"
         d="m 9593.47,12600.6 -161.75,-152.7 -96.53,-6.2 c 8.43,5.3 15.81,10.7 22.02,16.3 1.07,1 2.07,1.9 3.25,3.1 17.66,16.1 46.77,42.9 88.7,74.3 27.99,21.1 61.64,44.1 101.52,67.5 l 0.6,0.4 42.19,-2.7" /><path
         id="path514"
         style="fill:#2b478b;fill-opacity:1;fill-rule:nonzero;stroke:none"
         d="m 9628.74,12595 -157.95,-154.1 179.32,-38 56.62,175.8 -77.99,16.3" /><path
         id="path516"
         style="fill:#2b478b;fill-opacity:1;fill-rule:nonzero;stroke:none"
         d="m 9723.6,12573.3 -41.67,-165.2 132.89,37.8 8.54,115.1 -99.76,12.3" /><path
         id="path518"
         style="fill:#2b478b;fill-opacity:1;fill-rule:nonzero;stroke:none"
         d="m 12959.2,11307.2 c 69.7,27.2 88,148.5 30.3,200.5 -57.6,52 -136.5,104.3 -225.3,110.7 -182.4,13.2 -108.3,-358.2 -47.8,-365.9 35.6,-4.5 150.1,18.4 242.8,54.7" /><g
         transform="scale(1.10299)"
         id="g520"><path
           id="path522"
           style="fill:#355daf;fill-opacity:1;fill-rule:nonzero;stroke:none"
           d="m 15275.4,10901.7 c 6.6,9 622.3,211.9 1024.6,123.6 l -387.4,-244 -623,53.6 c 0,0 -47.4,22 -14.2,66.8" /></g><g
         transform="scale(1.01355)"
         id="g524"><path
           id="path526"
           style="fill:#d7e2ff;fill-opacity:1;fill-rule:nonzero;stroke:none"
           d="m 16300,13409.8 c 0,0 -448.4,-991 -533.8,-1141.4 -85.3,-150.5 -271.9,-246.5 -271.9,-246.5 l -1.2,-0.4 -1188.1,-482.7 c 0,0 -1482.1,116.9 -1804.5,152.4 l -0.1,0.1 c -29.2,3.2 -49.1,5.8 -57.2,7.5 -98,20.9 -143.8,66.4 -125,102.1 18.9,35.8 2297.4,309 2549.7,337.1 2.4,0.3 4.8,0.6 7.2,0.8 245.6,29 268.4,112.5 268.4,112.5 l 940,1077.5 c 12.1,19.9 31.8,34.9 54.6,46.2 67.6,33.6 161.9,34.8 161.9,34.8" /></g><g
         transform="scale(1.00348)"
         id="g528"><path
           id="path530"
           style="fill:#739af0;fill-opacity:1;fill-rule:nonzero;stroke:none"
           d="m 16300,13509.2 c -255.5,-310.2 -962.4,-1165.4 -1029.4,-1223.7 -72.2,-62.6 -2137.4,-394.5 -2644.7,-477 h -0.1 c -29.5,3.3 -49.5,6 -57.7,7.7 -99.1,21.1 -145.3,67 -126.3,103.1 19.1,36.1 2320.5,312.1 2575.3,340.5 254.8,28.4 278.3,114.4 278.3,114.4 l 949.5,1088.3 c 12.2,20.1 32.1,35.2 55.1,46.7" /></g><g
         transform="scale(1.01355)"
         id="g532"><path
           id="path534"
           style="fill:#d7e2ff;fill-opacity:1;fill-rule:nonzero;stroke:none"
           d="m 16300,13409.8 c 0,0 -448.4,-991 -533.8,-1141.4 -85.3,-150.5 -271.9,-246.5 -271.9,-246.5 l -1.2,-0.4 c -258.1,6.2 -475.5,65.7 -618,117.3 245.6,29 268.4,112.5 268.4,112.5 l 940,1077.5 c 12.1,19.9 31.8,34.9 54.6,46.2 67.6,33.6 161.9,34.8 161.9,34.8" /></g><path
         id="path536"
         style="fill:#e9f0ff;fill-opacity:1;fill-rule:nonzero;stroke:none"
         d="m 12805.5,11706.1 -45.7,-506.6 c 0,0 -193.6,-69.7 -496.3,-53.6 -185.4,9.9 -308.8,50.6 -376.7,80.6 -43,19 -63.7,33.8 -63.7,33.8 l 47.9,531.1 c 17,14.5 40.8,25.1 69.7,32.5 239.3,61.3 827.7,-97.3 827.7,-97.3 l 37.1,-20.5" /><path
         id="path538"
         style="fill:#ff9843;fill-opacity:1;fill-rule:nonzero;stroke:none"
         d="m 11940.7,11823.9 -53.9,-597.4 c -43,19 -63.7,33.8 -63.7,33.8 l 47.9,531.1 c 17,14.5 40.8,25.1 69.7,32.5" /><path
         id="path540"
         style="fill:#ffe3ca;fill-opacity:1;fill-rule:nonzero;stroke:none"
         d="M 8966.83,2589.6 12525,3539.3 c 75.3,20.2 125.3,80.3 111.1,133.7 l -1995,7500.3 c -14.2,53.4 -87.4,80.6 -162.8,60.5 L 6920.17,10284 c -75.33,-20.1 -125.35,-80.2 -111.15,-133.6 L 8804.05,2650.1 c 14.19,-53.4 87.45,-80.6 162.78,-60.5" /><path
         id="path542"
         style="fill:#f2be8f;fill-opacity:1;fill-rule:nonzero;stroke:none"
         d="m 8966.84,2589.6 292.54,78.1 -2046.66,7694.4 -292.55,-78.1 c -75.33,-20.1 -125.35,-80.2 -111.15,-133.6 L 8804.05,2650.1 c 14.2,-53.4 87.45,-80.6 162.79,-60.5" /><path
         id="path544"
         style="fill:#f4cfae;fill-opacity:1;fill-rule:nonzero;stroke:none"
         d="m 9551.82,7719.8 -598.89,2251.5 456.58,121.9 598.89,-2251.6 -456.58,-121.8" /><path
         id="path546"
         style="fill:#f4cfae;fill-opacity:1;fill-rule:nonzero;stroke:none"
         d="m 10818.1,7036.9 -852.41,3204.7 456.61,121.9 852.4,-3204.8 -456.6,-121.8" /><path
         id="path548"
         style="fill:#f2be8f;fill-opacity:1;fill-rule:nonzero;stroke:none"
         d="m 10275.8,8608.3 -426.26,1602.3 -101.78,-27.1 426.24,-1602.4 101.8,27.2" /><path
         id="path550"
         style="fill:#f2be8f;fill-opacity:1;fill-rule:nonzero;stroke:none"
         d="m 9269.67,8339.7 -426.22,1602.4 -101.78,-27.2 426.23,-1602.4 101.77,27.2" /><path
         id="path552"
         style="fill:#f2be8f;fill-opacity:1;fill-rule:nonzero;stroke:none"
         d="m 8036.15,9767.2 9.55,-26.3 c 0.33,-0.9 0.77,-1.8 1.33,-2.6 l 126.44,-182.7 c 1.54,-2.3 2.23,-5 1.94,-7.7 l -9.34,-322.7 c -0.93,-8.5 -37.88,27.9 -44.93,32.8 -76.73,52.8 -282.09,233.8 -367.91,298.7 -13.72,10.4 -33.22,-0.7 -31.34,-17.8 0.91,-8.2 4.19,-16 9.46,-22.4 l 296.06,-361 -15.66,-68.1 c -2.28,-9.9 3.95,-19.8 13.84,-22.1 l 52.74,-12 c 9.72,-2.2 19.47,3.7 21.97,13.3 l 38.14,-46.5 c 1.82,-2.2 2.72,-5 2.54,-7.9 l -18.93,-293 c -1.67,-25.9 5.68,-51.6 20.84,-72.7 6.14,-8.6 12.77,-17.8 18.94,-26.3 12.77,-17.7 37.73,-21.2 54.87,-7.6 l 8.59,6.8 c 28.09,22.1 44.8,55.7 45.56,91.4 l 4.98,233.9 c 0.09,4.7 3,8.8 7.34,10.4 l 88.62,33.3 -3.33,-14.5 c -2.27,-9.9 3.96,-19.8 13.84,-22.1 l 52.75,-12 c 9.89,-2.3 19.84,3.9 22.12,13.8 l 16.83,73.2 138.27,51.9 c 11.16,4.2 20.85,11.6 27.81,21.3 8.88,12.3 18.87,25.5 16.44,28.1 -7.87,8.3 -255.29,26.3 -350.89,28.4 -5.43,0.1 -4.63,46 -4.52,51.4 l -13.05,311.9 c 0.08,4.1 2.38,7.9 6,9.8 l 77.76,41.4 c 8.7,4.7 15.57,12.1 19.46,21.2 l 0.16,0.4 c 2.76,6.4 -0.91,13.7 -7.69,15.4 l -123.4,30.1 c -3.58,0.9 -6.51,3.5 -7.85,6.9 l -11.6,29.9 c -3.61,9.4 -16.68,9.7 -20.84,0.6 l -4.5,-9.9 -162.23,114.7 c -9.05,6.4 -20.96,-2.7 -17.18,-13.1" /><path
         id="path554"
         style="fill:#739af0;fill-opacity:1;fill-rule:nonzero;stroke:none"
         d="M 11524.2,1710.2 H 6845.57 v 6474.3 h 4687.03 c 177.2,0 320.9,-143.6 320.9,-320.8 V 2039.5 c 0,-181.9 -147.5,-329.3 -329.3,-329.3" /><path
         id="path556"
         style="fill:#aec3ff;fill-opacity:1;fill-rule:nonzero;stroke:none"
         d="m 7579.31,7441.5 h 113.95 c 18.24,0 33.93,2.3 47.05,6.8 13.12,4.5 23.93,10.8 32.42,19.1 8.5,8.2 14.68,18 18.56,29.4 3.88,11.4 5.81,23.8 5.81,37.3 0,12.8 -1.93,25 -5.81,36.8 -3.88,11.7 -10.06,22.1 -18.56,31.3 -8.49,9.1 -19.3,16.3 -32.42,21.7 -13.12,5.4 -28.81,8.1 -47.05,8.1 h -113.95 z m 0,-76.1 v -202.8 h -94.85 v 545.8 h 208.8 c 31.74,0 59.92,-4.3 84.54,-12.9 24.61,-8.6 45.41,-20.7 62.41,-36.2 17,-15.5 29.93,-33.8 38.8,-55.1 8.87,-21.2 13.31,-44.3 13.31,-69.3 0,-26.5 -4.44,-50.3 -13.31,-71.3 -8.87,-21 -21.8,-38.7 -38.8,-53.2 -17,-14.5 -37.8,-25.6 -62.41,-33.3 -24.62,-7.8 -52.8,-11.7 -84.54,-11.7 h -113.95" /><path
         id="path558"
         style="fill:#aec3ff;fill-opacity:1;fill-rule:nonzero;stroke:none"
         d="m 8029.15,7366.2 h 158.19 l -79.1,226.4 z m 184.81,-76.5 h -211.43 l -44.23,-127.1 h -98.59 l 206.17,545.8 h 85.1 l 206.55,-545.8 h -98.97 l -44.6,127.1" /><path
         id="path560"
         style="fill:#aec3ff;fill-opacity:1;fill-rule:nonzero;stroke:none"
         d="m 8704.66,7303.2 c 0,11 -1.63,20.8 -4.87,29.4 -3.26,8.6 -9.19,16.6 -17.81,23.8 -8.62,7.3 -20.5,14.2 -35.61,20.8 -15.13,6.7 -34.55,13.6 -58.29,20.8 -26,7.8 -49.99,16.7 -71.98,26.7 -21.99,9.9 -40.92,21.6 -56.79,34.8 -15.88,13.3 -28.3,28.5 -37.3,45.8 -9,17.2 -13.49,36.9 -13.49,59.2 0,22 4.68,42.2 14.05,60.7 9.37,18.5 22.55,34.5 39.55,48 16.99,13.5 37.36,24 61.1,31.5 23.74,7.5 49.98,11.2 78.72,11.2 30.75,0 58.35,-4.4 82.85,-13.3 24.49,-8.9 45.17,-20.9 62.04,-36.2 16.87,-15.2 29.8,-32.9 38.8,-53 8.99,-20.1 13.49,-41.5 13.49,-64.3 h -94.46 c 0,13.3 -2.06,25.4 -6.19,36.6 -4.12,11.1 -10.43,20.7 -18.93,28.8 -8.5,8.1 -19.25,14.5 -32.24,19 -12.99,4.5 -28.36,6.7 -46.1,6.7 -16.75,0 -31.25,-1.9 -43.49,-5.6 -12.25,-3.8 -22.44,-9 -30.55,-15.8 -8.13,-6.7 -14.12,-14.7 -17.99,-24 -3.88,-9.2 -5.82,-19.2 -5.82,-29.9 0,-20.3 9.56,-37.2 28.68,-50.7 19.12,-13.4 48.3,-25.9 87.54,-37.4 30.73,-9 57.35,-19 79.84,-30 22.49,-11 41.18,-23.5 56.04,-37.3 14.87,-13.9 25.93,-29.5 33.18,-46.9 7.24,-17.4 10.87,-36.9 10.87,-58.7 0,-22.9 -4.57,-43.6 -13.68,-62 -9.13,-18.4 -22.12,-34 -38.99,-46.9 -16.87,-12.8 -37.3,-22.7 -61.29,-29.6 -23.99,-6.8 -50.74,-10.3 -80.22,-10.3 -26.24,0 -52.11,3.6 -77.6,10.7 -25.49,7.1 -48.35,17.9 -68.6,32.2 -20.24,14.4 -36.55,32.3 -48.92,53.8 -12.37,21.5 -18.55,46.8 -18.55,75.8 h 94.83 c 0,-17.3 3.07,-32.1 9.19,-44.5 6.12,-12.3 14.49,-22.4 25.12,-30.3 10.62,-7.9 23.17,-13.6 37.67,-17.3 14.49,-3.6 30.11,-5.4 46.86,-5.4 32.99,0 57.79,6.7 74.41,20.1 16.62,13.3 24.93,31 24.93,53" /><path
         id="path562"
         style="fill:#aec3ff;fill-opacity:1;fill-rule:nonzero;stroke:none"
         d="m 9167.99,7303.2 c 0,11 -1.63,20.8 -4.87,29.4 -3.25,8.6 -9.18,16.6 -17.81,23.8 -8.62,7.3 -20.49,14.2 -35.61,20.8 -15.12,6.7 -34.55,13.6 -58.29,20.8 -26,7.8 -49.98,16.7 -71.98,26.7 -21.99,9.9 -40.92,21.6 -56.79,34.8 -15.87,13.3 -28.3,28.5 -37.3,45.8 -9,17.2 -13.49,36.9 -13.49,59.2 0,22 4.68,42.2 14.05,60.7 9.38,18.5 22.55,34.5 39.55,48 17,13.5 37.36,24 61.11,31.5 23.74,7.5 49.97,11.2 78.72,11.2 30.74,0 58.35,-4.4 82.84,-13.3 24.49,-8.9 45.18,-20.9 62.05,-36.2 16.87,-15.2 29.8,-32.9 38.79,-53 8.99,-20.1 13.49,-41.5 13.49,-64.3 h -94.46 c 0,13.3 -2.06,25.4 -6.18,36.6 -4.13,11.1 -10.44,20.7 -18.93,28.8 -8.51,8.1 -19.25,14.5 -32.24,19 -13,4.5 -28.37,6.7 -46.11,6.7 -16.75,0 -31.24,-1.9 -43.49,-5.6 -12.25,-3.8 -22.43,-9 -30.55,-15.8 -8.12,-6.7 -14.12,-14.7 -17.99,-24 -3.88,-9.2 -5.82,-19.2 -5.82,-29.9 0,-20.3 9.57,-37.2 28.69,-50.7 19.11,-13.4 48.29,-25.9 87.52,-37.4 30.74,-9 57.36,-19 79.85,-30 22.5,-11 41.18,-23.5 56.04,-37.3 14.87,-13.9 25.93,-29.5 33.18,-46.9 7.25,-17.4 10.87,-36.9 10.87,-58.7 0,-22.9 -4.56,-43.6 -13.68,-62 -9.13,-18.4 -22.11,-34 -38.98,-46.9 -16.87,-12.8 -37.3,-22.7 -61.3,-29.6 -23.99,-6.8 -50.74,-10.3 -80.22,-10.3 -26.24,0 -52.1,3.6 -77.6,10.7 -25.48,7.1 -48.35,17.9 -68.6,32.2 -20.24,14.4 -36.55,32.3 -48.92,53.8 -12.37,21.5 -18.55,46.8 -18.55,75.8 h 94.83 c 0,-17.3 3.06,-32.1 9.2,-44.5 6.11,-12.3 14.49,-22.4 25.11,-30.3 10.62,-7.9 23.17,-13.6 37.68,-17.3 14.49,-3.6 30.1,-5.4 46.85,-5.4 32.99,0 57.79,6.7 74.42,20.1 16.61,13.3 24.92,31 24.92,53" /><path
         id="path564"
         style="fill:#aec3ff;fill-opacity:1;fill-rule:nonzero;stroke:none"
         d="m 9440.9,7441.5 h 113.96 c 18.24,0 33.92,2.3 47.05,6.8 13.11,4.5 23.92,10.8 32.42,19.1 8.49,8.2 14.68,18 18.56,29.4 3.87,11.4 5.81,23.8 5.81,37.3 0,12.8 -1.94,25 -5.81,36.8 -3.88,11.7 -10.07,22.1 -18.56,31.3 -8.5,9.1 -19.31,16.3 -32.42,21.7 -13.13,5.4 -28.81,8.1 -47.05,8.1 H 9440.9 Z m 0,-76.1 v -202.8 h -94.85 v 545.8 h 208.81 c 31.73,0 59.91,-4.3 84.53,-12.9 24.61,-8.6 45.41,-20.7 62.42,-36.2 16.99,-15.5 29.92,-33.8 38.8,-55.1 8.87,-21.2 13.3,-44.3 13.3,-69.3 0,-26.5 -4.43,-50.3 -13.3,-71.3 -8.88,-21 -21.81,-38.7 -38.8,-53.2 -17.01,-14.5 -37.81,-25.6 -62.42,-33.3 -24.62,-7.8 -52.8,-11.7 -84.53,-11.7 H 9440.9" /><path
         id="path566"
         style="fill:#aec3ff;fill-opacity:1;fill-rule:nonzero;stroke:none"
         d="m 10177.5,7449.8 c 0,30.5 -2.9,57.4 -8.8,80.8 -5.9,23.3 -14.4,42.9 -25.7,58.6 -11.2,15.8 -25,27.7 -41.4,35.8 -16.4,8.1 -34.9,12.2 -55.7,12.2 -20.2,0 -38.5,-4.1 -54.7,-12.2 -16.25,-8.1 -30.06,-20 -41.42,-35.8 -11.38,-15.7 -20.13,-35.3 -26.24,-58.6 -6.13,-23.4 -9.19,-50.3 -9.19,-80.8 v -28.5 c 0,-30.5 3.06,-57.5 9.19,-81 6.11,-23.5 14.93,-43.2 26.43,-59 11.49,-15.9 25.42,-27.9 41.79,-36 16.34,-8.1 34.64,-12.2 54.94,-12.2 42,0 74.3,16 96.9,48 22.6,32 33.9,78.7 33.9,140.2 z m 94.9,-28.5 c 0,-41.5 -5.5,-78.7 -16.4,-111.5 -10.8,-32.9 -26.1,-60.8 -45.9,-83.6 -19.7,-22.9 -43.5,-40.5 -71.2,-52.7 -27.7,-12.3 -58.5,-18.4 -92.2,-18.4 -33.5,0 -64.12,6.1 -91.86,18.4 -27.74,12.2 -51.68,29.8 -71.79,52.7 -20.12,22.8 -35.74,50.7 -46.86,83.6 -11.13,32.8 -16.68,70 -16.68,111.5 v 27.7 c 0,41.5 5.55,78.7 16.68,111.7 11.12,33 26.62,61 46.49,84 19.86,23 43.67,40.6 71.41,52.9 27.74,12.2 58.31,18.3 91.81,18.3 33.8,0 64.6,-6.1 92.4,-18.3 27.9,-12.3 51.8,-29.9 71.6,-52.9 19.9,-23 35.3,-51 46.1,-84 10.9,-33 16.4,-70.2 16.4,-111.7 v -27.7" /><path
         id="path568"
         style="fill:#aec3ff;fill-opacity:1;fill-rule:nonzero;stroke:none"
         d="m 10461.7,7449 h 97.4 c 17,0 31.9,2.3 44.6,6.8 12.8,4.5 23.4,10.7 31.9,18.7 8.5,8 14.9,17.5 19.1,28.5 4.3,11 6.4,23.1 6.4,36.4 0,14 -2,26.6 -6,38 -4,11.4 -10.1,21.1 -18.4,29.3 -8.2,8.1 -18.8,14.3 -31.7,18.7 -12.8,4.4 -28.3,6.6 -46.2,6.6 h -97.1 z m 105.7,-76.1 h -105.7 v -210.3 h -94.9 v 545.8 h 192 c 31.2,0 59.1,-3.5 83.5,-10.7 24.5,-7.1 45.2,-17.6 62.1,-31.4 16.9,-13.9 29.7,-31.1 38.4,-51.6 8.8,-20.5 13.1,-44.2 13.1,-71.2 0,-36.5 -8.8,-67.1 -26.4,-91.7 -17.6,-24.6 -42.2,-43.5 -73.7,-56.8 l 122.6,-227.5 v -4.9 h -101.6 l -109.4,210.3" /><path
         id="path570"
         style="fill:#aec3ff;fill-opacity:1;fill-rule:nonzero;stroke:none"
         d="m 11221.5,7632 h -170.2 v -469.4 h -94.1 V 7632 h -168.7 v 76.4 h 433 V 7632" /><path
         id="path572"
         style="fill:#aec3ff;fill-opacity:1;fill-rule:nonzero;stroke:none"
         d="m 9729.28,2405 h -752.59 c -24.24,0 -43.89,19.6 -43.89,43.8 0,24.3 19.65,43.9 43.89,43.9 h 752.59 c 24.25,0 43.89,-19.6 43.89,-43.9 0,-24.2 -19.64,-43.8 -43.89,-43.8" /><path
         id="path574"
         style="fill:#aec3ff;fill-opacity:1;fill-rule:nonzero;stroke:none"
         d="M 10265.5,2195.7 H 8440.44 c -24.24,0 -43.89,19.7 -43.89,43.9 0,24.3 19.65,43.9 43.89,43.9 h 1825.06 c 24.3,0 43.9,-19.6 43.9,-43.9 0,-24.2 -19.6,-43.9 -43.9,-43.9" /><path
         id="path576"
         style="fill:#aec3ff;fill-opacity:1;fill-rule:nonzero;stroke:none"
         d="m 9352.99,6595.1 c -471.57,0 -914.92,-183.6 -1248.38,-517.1 -333.45,-333.5 -517.1,-776.8 -517.1,-1248.4 0,-471.6 183.65,-914.9 517.1,-1248.4 333.46,-333.4 776.81,-517 1248.38,-517 471.58,0 914.91,183.6 1248.41,517 333.4,333.5 517.1,776.8 517.1,1248.4 0,471.6 -183.7,914.9 -517.1,1248.4 -333.5,333.5 -776.83,517.1 -1248.41,517.1 z m 0,-3550.6 c -476.82,0 -925.1,185.7 -1262.26,522.9 -337.17,337.1 -522.85,785.4 -522.85,1262.2 0,476.8 185.68,925.1 522.85,1262.3 337.16,337.1 785.44,522.8 1262.26,522.8 476.82,0 925.11,-185.7 1262.21,-522.8 337.2,-337.2 522.9,-785.5 522.9,-1262.3 0,-476.8 -185.7,-925.1 -522.9,-1262.2 -337.1,-337.2 -785.39,-522.9 -1262.21,-522.9" /><path
         id="path578"
         style="fill:#aec3ff;fill-opacity:1;fill-rule:nonzero;stroke:none"
         d="m 10784.3,4829.6 c 0,-88 -7.9,-174.2 -23.1,-257.8 -36.6,-200.8 -115,-386.9 -225.9,-549.2 -257.8,-376.9 -691.15,-624.3 -1182.3,-624.3 -584.25,0 -1086.75,350 -1309.15,851.8 -29.35,66.1 -53.84,134.9 -72.9,205.9 -32.2,119 -49.33,244.4 -49.33,373.6 0,104.5 11.2,206.5 32.48,304.6 0.22,1.1 0.5,2.2 0.71,3.3 59.48,271.3 195.92,513.7 385.27,703.4 53.69,53.8 111.66,103.3 173.42,148.1 29.42,21.4 59.76,41.6 90.82,60.7 217.76,134 474.15,211.3 748.68,211.3 36.41,0 72.47,-1.4 108.17,-4.1 50.4,-3.7 100.02,-10.1 148.79,-18.9 205.34,-37.2 395.34,-118.3 560.14,-233.1 v 0 c 102.7,-71.4 195.5,-156 276.1,-251.3 42.4,-50 81.4,-103 116.6,-158.6 21.9,-34.7 42.4,-70.2 61.4,-106.8 45.6,-87.8 82.3,-181 109.1,-278.3 33.2,-121.1 51,-248.7 51,-380.3" /><path
         id="path580"
         style="fill:#94b0ed;fill-opacity:1;fill-rule:nonzero;stroke:none"
         d="m 8866.71,5470.3 c -57.12,-90.5 23.85,-247.5 -147.51,-204.7 -171.35,42.8 -276.09,61.9 -285.59,-33.3 -9.57,-95.2 128.51,-95.2 128.51,-195.2 0,-99.9 -61.9,-133 -157.07,-85.5 -95.25,47.5 -122.59,116.5 -233.26,73.7 -110.66,-42.9 -174.92,-14.3 -199.91,71.4 -4.43,15 -10.57,27.3 -17.78,37.5 0.22,1.1 0.5,2.2 0.71,3.3 59.48,271.3 195.92,513.7 385.27,703.4 53.69,53.8 111.66,103.3 173.42,148.1 29.42,21.4 59.76,41.6 90.82,60.7 44.63,-1.6 97.96,-18.6 143.44,-74.8 99.95,-123.8 166.57,-61.9 142.8,-204.7 -23.85,-142.8 14.27,-161.9 95.17,-157.1 80.89,4.8 176.14,4.8 185.63,-57.1 9.5,-61.9 -247.53,4.8 -304.65,-85.7" /><path
         id="path582"
         style="fill:#94b0ed;fill-opacity:1;fill-rule:nonzero;stroke:none"
         d="m 9459.32,4613.5 c 0,0 -126.14,-40.4 -159.45,47.6 -33.32,88.1 4.75,107.1 -107.1,133.3 -111.86,26.2 -121.37,102.3 -192.77,92.8 -71.4,-9.5 -35.7,-38 -119,-99.9 -83.3,-61.9 -159.46,-33.3 -157.07,-147.6 2.37,-114.2 126.13,-132.1 151.12,-207 24.99,-75 -17.85,-107.1 35.7,-164.3 53.55,-57.1 153.5,-32.1 107.1,-110.6 -46.41,-78.6 -117.81,-139.2 -82.11,-260.6 35.7,-121.4 10.71,-128.5 71.39,-214.2 60.69,-85.7 178.5,-114.3 196.35,-57.1 17.85,57.1 -82.11,132 -49.98,189.2 32.13,57.1 85.68,17.8 107.1,103.5 21.42,85.7 108.28,85.7 115.43,145.2 7.13,59.5 -104.72,149.9 -61.88,188 42.83,38.1 128.51,-69 195.15,26.2 66.64,95.2 21.42,171.3 90.44,261.8 69.01,90.4 -92.82,126.1 -140.42,73.7" /><path
         id="path584"
         style="fill:#94b0ed;fill-opacity:1;fill-rule:nonzero;stroke:none"
         d="m 10784.3,4829.6 c 0,-88 -7.9,-174.2 -23.1,-257.8 -36.6,-200.8 -115,-386.9 -225.9,-549.2 -37.9,-12.4 -76.5,-12.1 -114.5,3.1 -178.5,71.4 -46.4,264.2 25,360.6 71.4,96.4 -110.7,53.5 -242.7,142.8 -132.1,89.2 14.2,328.4 -121.4,289.1 -135.67,-39.2 -299.88,-89.2 -378.42,42.9 -78.54,132.1 71.39,153.5 3.57,264.1 -67.83,110.7 39.26,175 174.92,185.7 135.63,10.7 117.81,107.1 285.63,121.3 167.7,14.3 164.2,-199.9 349.8,-185.6 185.6,14.3 177.3,-28.5 177.3,-28.5 13.3,0.3 26.3,-2.5 38.8,-8.2 33.2,-121.1 51,-248.7 51,-380.3" /><path
         id="path586"
         style="fill:#94b0ed;fill-opacity:1;fill-rule:nonzero;stroke:none"
         d="m 10624.2,5488.2 c -154.4,-75.1 -216.4,129.2 -348.3,67.8 -133,-61.9 -109.8,57.1 -214.4,133.3 -104.76,76.1 -314.17,-61.9 -304.67,57.1 9.49,118.9 166.56,85.7 199.91,180.8 33.34,95.2 185.66,71.4 185.66,71.4 8.6,3.3 17.9,5.5 27.7,6.3 v 0 c 102.7,-71.4 195.5,-156 276.1,-251.3 42.4,-50 81.4,-103 116.6,-158.6 21.9,-34.7 42.4,-70.2 61.4,-106.8" /><path
         id="path588"
         style="fill:#94b0ed;fill-opacity:1;fill-rule:nonzero;stroke:none"
         d="m 9323.67,5898.7 c 0,0 80.91,116.7 -47.61,151.2 -128.51,34.4 -126.13,-10.7 -226.08,0 -99.97,10.6 -139.23,-66.7 -64.26,-151.2 74.96,-84.5 135.65,-246.6 203.48,-160.2 67.83,86.4 54.74,151.9 134.47,160.2" /></g></g></svg>