<?xml version="1.0" encoding="utf-8"?>
<!-- Generator: Adobe Illustrator 23.0.3, SVG Export Plug-In . SVG Version: 6.00 Build 0)  -->
<svg version="1.1" id="logosvg.com" xmlns="http://www.w3.org/2000/svg" xmlns:xlink="http://www.w3.org/1999/xlink" x="0px"
	 y="0px" viewBox="0 0 400 300" style="enable-background:new 0 0 400 300;" xml:space="preserve">
<path id="logo" d="M343.4,117c-48.6,2.2-74.1,3.3-86.8,3.6c-12.4,0.3-10.5,0.6-28.6-5c-16.1-5-21-6.1-27.2-6.3
	c-3.9-0.1-5.7,0-9.6,0.9c-4.5,1-15.1,4.1-28.8,8.4l-6,1.9l-11.2,0c-11.7-0.1-28.6-0.7-88.7-3.5c-52.4-2.4-49-2.3-48.6-1.6
	c2.1,3.6,6.4,6.6,10.8,7.4c4.5,0.9,20,2.4,70.6,6.9c14.1,1.3,29,2.6,33.1,3.1c21.4,2.4,25.8,4.4,31.9,14.8c6.1,10.5,9,14.8,14,20.5
	c6.2,7,17.4,15.5,27.2,20.5l4.4,2.3l4.4-2.3c9.7-5,21-13.5,27.2-20.5c5-5.7,7.9-9.9,14-20.5c6.1-10.4,10.5-12.5,31.9-14.8
	c4.1-0.5,19-1.8,33.1-3.1c50.6-4.5,66.2-6,70.6-6.9c4.4-0.8,8.6-3.7,10.8-7.4C392.4,114.7,395.8,114.6,343.4,117z M240.6,132.5
	c-0.1,5-6.5,19.5-11.6,26.6c-3.1,4.4-9.5,11-14.3,14.9c-3.9,3.2-12.8,9.1-14.2,9.4c-1.7,0.4-11.2-5.9-18.4-12.2
	c-7.3-6.4-12.9-13.6-17.1-22.3c-2.3-4.8-5.3-13.1-5.7-16c-0.5-3.6,2-5.8,10.1-8.9c6.9-2.7,21-6.7,28.1-8c2.2-0.4,7.1,0.3,13.3,1.9
	c8.7,2.2,19.5,5.8,24.2,8C239.6,128.1,240.8,129.4,240.6,132.5z M175.8,138.9h1.9v2.4c0,2.4,0,2.4-1.3,2.9c-3.7,1.3-7.2-0.1-8.1-3.2
	c-0.8-2.4,0-4.9,1.9-6.2c1-0.7,2-1,3.3-1c2.9,0,3.8,0.4,3.8,1.5c0,0.8-0.1,1-0.7,0.7c-0.4-0.2-1.5-0.4-2.4-0.5c-1.4-0.1-1.8,0-2.6,1
	c-1.9,2.5-0.5,6.4,2.4,6.4c1.2,0,1.2-0.1,1.2-1.4c0-0.9-0.2-1.5-0.6-1.7C173.3,139.5,174,138.9,175.8,138.9z M187.2,143.8
	c0,0.8-0.2,0.9-3.6,0.7l-3.6-0.1l-0.1-4.5c0-2.5-0.3-4.8-0.5-5c-0.2-0.3-0.3-0.6-0.1-0.7c0.3-0.3,7.6-0.4,7.6-0.1
	c0,0.1,0.1,0.5,0.2,0.8c0.2,0.6-0.1,0.7-2.3,0.7h-2.5v1.4v1.4h2.1c1.5,0,2.1,0.2,2.1,0.6c0,0.5-0.6,0.7-1.9,0.7
	c-2,0.1-2,0.1-2.1,1.7l-0.1,1.6h2.5C186.9,143,187.2,143.1,187.2,143.8z M198.1,139.3c0,5,0,5.2-0.9,5.3c-0.7,0.1-1.4-0.6-3.3-2.9
	l-2.4-3l-0.2,2.9c-0.2,2.6-0.3,2.9-1.1,3c-1,0.1-1,0.1-1-4.6c0-3.3-0.2-4.8-0.5-4.9c-0.2-0.1-0.3-0.4-0.2-0.7
	c0.2-0.3,0.7-0.5,1.3-0.5c0.7,0,1.6,0.8,3.6,3.3l2.6,3.3l0.1-3.3c0.1-3.1,0.2-3.3,1-3.2C198.1,134.1,198.1,134.3,198.1,139.3z
	 M207.9,143.8c0,0.7-0.3,0.8-3.5,0.8h-3.5v-4.5c0-2.6-0.2-4.6-0.4-4.8c-0.2-0.1-0.4-0.5-0.4-0.9c0-0.5,0.7-0.6,3.8-0.5
	c3.3,0.1,3.8,0.2,4,0.8c0.1,0.6-0.2,0.7-2.1,0.7h-2.3v1.4v1.4h2.1c1.6,0,2.1,0.2,2.1,0.6s-0.5,0.6-2.1,0.6h-2.1v1.7v1.7h2.3
	C207.6,143,207.9,143.1,207.9,143.8z M215.8,143.8c-0.9,0.7-1.6,0.8-3.6,0.7c-2.4-0.1-2.5-0.2-2.6-1.2c-0.1-1.1-0.1-1.1,1.1-0.7
	c0.7,0.2,1.7,0.4,2.4,0.3c1.9-0.2,1.5-1.4-0.9-2.7c-2.4-1.3-3.3-2.8-2.7-4.4c0.2-0.6,0.8-1.3,1.3-1.5c1.1-0.4,4.1-0.5,5-0.2
	c0.4,0.1,0.7,0.6,0.7,1c0,0.7-0.2,0.7-2.3,0.5c-2.1-0.2-2.3-0.2-2.3,0.6c0,0.7,0.6,1.2,2.1,1.9C217.2,139.8,217.9,142.2,215.8,143.8
	z M220.1,133.9h1.4v5.4v5.4h-1.2H219V140c0-3.3-0.2-4.8-0.5-4.9c-0.2-0.1-0.3-0.4-0.2-0.7C218.5,134.1,219.3,133.9,220.1,133.9z
	 M231.4,141.6c0,2.1-1.6,3.1-4.7,3c-2.4-0.1-2.5-0.2-2.6-1.2c-0.1-1.1-0.1-1.1,1.1-0.7c1.9,0.7,3.6,0.3,3.6-0.7
	c0-0.5-0.7-1.2-2.1-1.9c-3.2-1.7-3.9-4.2-1.5-5.5c1.1-0.6,4-0.8,5.2-0.4c0.4,0.1,0.7,0.6,0.7,1c0,0.7-0.2,0.7-2.3,0.5
	c-2.1-0.2-2.3-0.2-2.3,0.6c0,0.5,0.6,1.2,1.8,1.8C230.9,139.5,231.4,140.1,231.4,141.6z M172.9,178.9c-0.2,0.2-10.7-1.7-16.7-3.1
	c-6.5-1.5-21.2-5.5-21.7-6c-0.2-0.2,0-0.4,0.5-0.4c1.5,0,12.9-0.8,14.9-1.1l1.8-0.2l-1-1c-2.2-2.4-2.1-2.4-19.6-2.4l-16.1,0
	l-5.8-1.3c-11.4-2.5-32.1-8.3-33-9.3c-0.3-0.3,2.1-0.3,7.4-0.2c16.8,0.5,46.6,1,46.9,0.8c0.1-0.1-0.4-0.9-1.2-1.6
	c-1.1-1-2.2-1.5-3.7-1.8c-1.2-0.2-8.9-0.7-17.1-1.1c-17.1-0.7-31.2-1.6-41.5-2.5c-22.6-1.9-31.6-5.3-43.8-16.5
	c-1.7-1.6-3.1-3-3.2-3.2c-0.1-0.2,0.2-0.3,0.5-0.3c1.8,0,41,3.8,89.1,8.5c18.5,1.9,27.2,3.4,31.1,5.5c2.9,1.6,7,6.1,11,12.1
	c7.8,11.6,13.8,18.9,19.2,23.1C172.1,177.9,173,178.8,172.9,178.9z M380.1,128.1c0,0.2-1.5,1.6-3.2,3.2
	c-12.2,11.2-21.2,14.5-43.8,16.5c-10.4,0.9-24.4,1.8-41.5,2.5c-8.2,0.4-15.9,0.9-17.1,1.1c-1.5,0.3-2.6,0.8-3.7,1.8
	c-0.8,0.7-1.4,1.5-1.2,1.6c0.2,0.2,30.9-0.3,47.1-0.8c5.1-0.2,7.5-0.1,7.2,0.2c-1,1-21.7,6.7-33,9.3l-5.8,1.3l-16.1,0
	c-17.5,0-17.4,0-19.6,2.4l-1,1l1.8,0.2c2,0.2,13.4,1.1,14.9,1.1c0.6,0,0.8,0.2,0.5,0.4c-0.5,0.5-15.1,4.5-21.7,6
	c-6.1,1.3-16.5,3.3-16.7,3.1c-0.1-0.1,0.9-1,2.1-2c5.3-4.3,11.4-11.6,19.2-23.1c4.1-6,8.2-10.5,11-12.1c4-2.1,12.6-3.6,33.1-5.6
	c6.9-0.7,22.2-2.2,33.9-3.3c11.7-1.2,27.9-2.7,36-3.5C378.5,127.7,380.3,127.6,380.1,128.1z"/>
</svg>
